<svg width="174" height="37" viewBox="0 0 174 37" fill="none" xmlns="http://www.w3.org/2000/svg">
<ellipse cx="18.8008" cy="18.5" rx="18.3008" ry="18" fill="white"/>
<path d="M49.9687 26.5126C47.0572 26.5126 44.751 25.6599 43.0499 23.9546L44.9391 21.3485C46.3457 22.7963 48.0795 23.5203 50.1404 23.5203C51.04 23.5203 51.7352 23.3514 52.2258 23.0135C52.7329 22.6596 52.9864 22.2333 52.9864 21.7346C52.9864 21.3002 52.7493 20.9382 52.2749 20.6487C51.8169 20.3591 51.2363 20.15 50.533 20.0213C49.846 19.8926 49.0936 19.7075 48.2758 19.4662C47.458 19.2249 46.6974 18.9514 45.9941 18.6458C45.3071 18.3401 44.7265 17.8575 44.2521 17.1979C43.7941 16.5383 43.5652 15.7339 43.5652 14.7848C43.5652 13.4012 44.1294 12.2429 45.258 11.3099C46.3866 10.3607 47.8914 9.88613 49.7724 9.88613C52.3731 9.88613 54.4994 10.6342 56.1514 12.1303L54.2131 14.64C52.921 13.4656 51.3344 12.8784 49.4534 12.8784C48.7174 12.8784 48.1449 13.0232 47.736 13.3128C47.3271 13.6023 47.1227 13.9965 47.1227 14.4952C47.1227 14.8813 47.3517 15.2111 47.8096 15.4846C48.284 15.742 48.8646 15.935 49.5516 16.0637C50.2549 16.1924 51.0073 16.3855 51.8088 16.6429C52.6266 16.8842 53.379 17.1657 54.0659 17.4875C54.7693 17.7931 55.3499 18.2838 55.8079 18.9595C56.2822 19.6191 56.5194 20.4154 56.5194 21.3485C56.5194 22.8929 55.9551 24.1397 54.8265 25.0888C53.7143 26.038 52.095 26.5126 49.9687 26.5126Z" fill="white"/>
<path d="M69.0224 26.223H65.9065V25.0164C65.056 26.0138 63.8047 26.5126 62.1528 26.5126C61.0896 26.5126 60.1327 26.1747 59.2822 25.499C58.448 24.8073 58.0309 23.8581 58.0309 22.6516C58.0309 21.3967 58.4399 20.4556 59.2577 19.8282C60.0919 19.2008 61.0569 18.8871 62.1528 18.8871C63.8375 18.8871 65.0887 19.3617 65.9065 20.3108V18.7423C65.9065 18.1471 65.6694 17.6725 65.195 17.3186C64.7207 16.9646 64.091 16.7877 63.3059 16.7877C62.0137 16.7877 60.8606 17.2462 59.8465 18.1631L58.6688 16.112C60.0755 14.8893 61.8011 14.278 63.8456 14.278C65.3668 14.278 66.6099 14.6239 67.5749 15.3157C68.5399 16.0074 69.0224 17.1335 69.0224 18.694V26.223ZM63.404 24.4373C64.5653 24.4373 65.3995 24.0994 65.9065 23.4238V21.9759C65.3995 21.3002 64.5653 20.9624 63.404 20.9624C62.7661 20.9624 62.2345 21.1232 61.8093 21.445C61.384 21.7507 61.1714 22.177 61.1714 22.724C61.1714 23.2548 61.384 23.6731 61.8093 23.9788C62.2345 24.2844 62.7661 24.4373 63.404 24.4373Z" fill="white"/>
<path d="M75.2289 26.223H72.113V10.1274H75.2289V26.223Z" fill="white"/>
<path d="M83.8879 26.5126C82.056 26.5126 80.543 25.9495 79.349 24.8234C78.155 23.6972 77.558 22.2172 77.558 20.3832C77.558 18.6619 78.1304 17.214 79.2754 16.0396C80.4367 14.8652 81.9087 14.278 83.6916 14.278C85.4581 14.278 86.8893 14.8733 87.9851 16.0637C89.081 17.2381 89.6289 18.7825 89.6289 20.6969V21.3726H80.821C80.9192 22.1448 81.2709 22.7883 81.876 23.3031C82.4812 23.8179 83.2663 24.0753 84.2313 24.0753C84.7548 24.0753 85.319 23.9707 85.9242 23.7616C86.5458 23.5525 87.0365 23.2709 87.3963 22.917L88.7702 24.8958C87.5762 25.9736 85.9488 26.5126 83.8879 26.5126ZM86.6112 19.2973C86.5621 18.6377 86.2923 18.0425 85.8016 17.5116C85.3272 16.9807 84.6239 16.7153 83.6916 16.7153C82.8083 16.7153 82.1214 16.9807 81.6307 17.5116C81.14 18.0264 80.8538 18.6216 80.772 19.2973H86.6112Z" fill="white"/>
<path d="M96.1486 26.5126C95.1182 26.5126 94.1286 26.3517 93.1799 26.0299C92.2476 25.7082 91.4707 25.2658 90.8492 24.7027L92.1986 22.555C92.6565 22.9733 93.2781 23.3433 94.0632 23.6651C94.8483 23.9868 95.5925 24.1477 96.2958 24.1477C96.9501 24.1477 97.4408 24.0351 97.7679 23.8099C98.1114 23.5846 98.2831 23.279 98.2831 22.8929C98.2831 22.6033 98.1032 22.37 97.7434 22.1931C97.3999 22 96.9664 21.8633 96.443 21.7828C95.936 21.7024 95.3717 21.5817 94.7502 21.4209C94.145 21.26 93.5807 21.0669 93.0573 20.8417C92.5502 20.6165 92.1168 20.2626 91.7569 19.7799C91.4135 19.2812 91.2417 18.6699 91.2417 17.946C91.2417 16.9164 91.6752 16.0476 92.542 15.3398C93.4089 14.6319 94.5948 14.278 96.0996 14.278C97.9315 14.278 99.5262 14.8089 100.884 15.8707L99.6325 17.9701C99.2563 17.584 98.7493 17.2622 98.1114 17.0048C97.4898 16.7474 96.8274 16.6187 96.1241 16.6187C95.568 16.6187 95.1182 16.7314 94.7747 16.9566C94.4312 17.1657 94.2595 17.4392 94.2595 17.777C94.2595 18.0344 94.4312 18.2516 94.7747 18.4286C95.1182 18.5895 95.5516 18.7101 96.075 18.7906C96.5984 18.871 97.1627 18.9997 97.7679 19.1767C98.3731 19.3375 98.9374 19.5386 99.4608 19.7799C99.9842 20.0052 100.418 20.3752 100.761 20.89C101.105 21.4048 101.276 22.0322 101.276 22.7722C101.276 23.8662 100.818 24.7671 99.9024 25.4749C99.0028 26.1667 97.7515 26.5126 96.1486 26.5126Z" fill="white"/>
<path d="M107.129 26.223H103.645V10.1274H115.226V13.1438H107.129V16.5464H115.054V19.5628H107.129V26.223Z" fill="white"/>
<path d="M119.134 13.3128C118.627 13.3128 118.185 13.1358 117.809 12.7819C117.449 12.4119 117.269 11.9775 117.269 11.4788C117.269 10.9801 117.449 10.5538 117.809 10.1998C118.185 9.84591 118.627 9.66895 119.134 9.66895C119.657 9.66895 120.099 9.84591 120.459 10.1998C120.819 10.5538 120.998 10.9801 120.998 11.4788C120.998 11.9775 120.819 12.4119 120.459 12.7819C120.099 13.1358 119.657 13.3128 119.134 13.3128ZM120.704 26.223H117.588V14.5676H120.704V26.223Z" fill="white"/>
<path d="M134.908 26.223H131.792V19.1767C131.792 17.7288 131.064 17.0048 129.608 17.0048C128.48 17.0048 127.58 17.4633 126.91 18.3803V26.223H123.794V14.5676H126.91V16.0879C127.94 14.8813 129.322 14.278 131.056 14.278C132.332 14.278 133.289 14.6078 133.926 15.2674C134.581 15.927 134.908 16.8359 134.908 17.9942V26.223Z" fill="white"/>
<path d="M149.288 26.223H146.147V24.7268C145.182 25.9173 143.964 26.5126 142.492 26.5126C140.954 26.5126 139.695 25.9736 138.713 24.8958C137.732 23.8018 137.241 22.3057 137.241 20.4074C137.241 18.5412 137.732 17.0531 138.713 15.9431C139.695 14.833 140.954 14.278 142.492 14.278C143.996 14.278 145.215 14.8733 146.147 16.0637V10.1274H149.288V26.223ZM143.448 23.7857C143.972 23.7857 144.487 23.6651 144.994 23.4238C145.501 23.1664 145.885 22.8446 146.147 22.4585V18.3321C145.885 17.946 145.501 17.6323 144.994 17.3909C144.487 17.1335 143.972 17.0048 143.448 17.0048C142.565 17.0048 141.845 17.3186 141.289 17.946C140.733 18.5734 140.455 19.3938 140.455 20.4074C140.455 21.4048 140.733 22.2172 141.289 22.8446C141.845 23.472 142.565 23.7857 143.448 23.7857Z" fill="white"/>
<path d="M157.947 26.5126C156.115 26.5126 154.602 25.9495 153.408 24.8234C152.214 23.6972 151.617 22.2172 151.617 20.3832C151.617 18.6619 152.189 17.214 153.334 16.0396C154.496 14.8652 155.968 14.278 157.75 14.278C159.517 14.278 160.948 14.8733 162.044 16.0637C163.14 17.2381 163.688 18.7825 163.688 20.6969V21.3726H154.88C154.978 22.1448 155.33 22.7883 155.935 23.3031C156.54 23.8179 157.325 24.0753 158.29 24.0753C158.814 24.0753 159.378 23.9707 159.983 23.7616C160.605 23.5525 161.095 23.2709 161.455 22.917L162.829 24.8958C161.635 25.9736 160.008 26.5126 157.947 26.5126ZM160.67 19.2973C160.621 18.6377 160.351 18.0425 159.86 17.5116C159.386 16.9807 158.683 16.7153 157.75 16.7153C156.867 16.7153 156.18 16.9807 155.69 17.5116C155.199 18.0264 154.913 18.6216 154.831 19.2973H160.67Z" fill="white"/>
<path d="M169.054 26.223H165.938V14.5676H169.054V16.1603C169.496 15.6133 170.06 15.1628 170.747 14.8089C171.434 14.455 172.129 14.278 172.833 14.278V17.2703C172.62 17.222 172.334 17.1979 171.974 17.1979C171.451 17.1979 170.894 17.3266 170.306 17.584C169.717 17.8414 169.3 18.1551 169.054 18.5251V26.223Z" fill="white"/>
<path d="M15.1767 13.5171H12.8705C12.3246 13.5171 11.8821 13.9523 11.8821 14.4892V23.8867C11.8821 24.4236 12.3246 24.8588 12.8705 24.8588H15.1767C15.7226 24.8588 16.1651 24.4236 16.1651 23.8867V14.4892C16.1651 13.9523 15.7226 13.5171 15.1767 13.5171Z" fill="#E54247"/>
<path d="M25.0606 11.2485H22.7544C22.2085 11.2485 21.766 11.6838 21.766 12.2207V23.8864C21.766 24.4233 22.2085 24.8586 22.7544 24.8586H25.0606C25.6065 24.8586 26.049 24.4233 26.049 23.8864V12.2207C26.049 11.6838 25.6065 11.2485 25.0606 11.2485Z" fill="#6CACDE"/>
<path d="M20.1187 8.65625H17.8124C17.2666 8.65625 16.824 9.09149 16.824 9.6284V23.8865C16.824 24.4235 17.2666 24.8587 17.8124 24.8587H20.1187C20.6646 24.8587 21.1071 24.4235 21.1071 23.8865V9.6284C21.1071 9.09149 20.6646 8.65625 20.1187 8.65625Z" fill="#68B796"/>
<path fill-rule="evenodd" clip-rule="evenodd" d="M2.50165 14.813C2.50165 14.1917 3.01375 13.688 3.64545 13.688H7.59903C8.14693 13.688 8.61787 14.0701 8.72199 14.5992L10.6885 24.5926C10.9283 25.3713 11.3992 25.6778 11.8821 25.6778H26.0378C26.0452 25.6755 26.1457 25.6545 26.3153 25.4975C26.5051 25.3218 26.7333 25.0146 26.9253 24.5388L29.0479 14.5821C29.159 14.0611 29.6261 13.688 30.1674 13.688H33.9562C34.5879 13.688 35.1 14.1917 35.1 14.813C35.1 15.4343 34.5879 15.938 33.9562 15.938H31.0962L29.1453 25.0894C29.1334 25.1452 29.1172 25.2001 29.0968 25.2535C28.8004 26.0308 28.3836 26.6726 27.8831 27.136C27.3934 27.5893 26.7562 27.9278 26.049 27.9278H11.8821C10.0675 27.9278 8.8995 26.6254 8.47602 25.1676C8.46689 25.1362 8.45916 25.1044 8.45285 25.0723L6.65538 15.938H3.64545C3.01375 15.938 2.50165 15.4343 2.50165 14.813Z" fill="#455472"/>
</svg>
