<svg width="32" height="28" viewBox="0 0 32 28" fill="none" xmlns="http://www.w3.org/2000/svg">
<rect width="32" height="28" rx="4" fill="#192535"/>
<path d="M13.1095 10.2833H11.27C10.8346 10.2833 10.4817 10.6221 10.4817 11.04V18.3544C10.4817 18.7723 10.8346 19.111 11.27 19.111H13.1095C13.5448 19.111 13.8978 18.7723 13.8978 18.3544V11.04C13.8978 10.6221 13.5448 10.2833 13.1095 10.2833Z" fill="white"/>
<path d="M20.9928 8.51776H19.1533C18.7179 8.51776 18.365 8.85653 18.365 9.27442V18.3544C18.365 18.7723 18.7179 19.111 19.1533 19.111H20.9928C21.4281 19.111 21.7811 18.7723 21.7811 18.3544V9.27442C21.7811 8.85653 21.4281 8.51776 20.9928 8.51776Z" fill="white"/>
<path d="M17.0511 6.5H15.2117C14.7763 6.5 14.4233 6.83877 14.4233 7.25666V18.3544C14.4233 18.7723 14.7763 19.111 15.2117 19.111H17.0511C17.4865 19.111 17.8394 18.7723 17.8394 18.3544V7.25666C17.8394 6.83877 17.4865 6.5 17.0511 6.5Z" fill="white"/>
<path fill-rule="evenodd" clip-rule="evenodd" d="M3 11.2922C3 10.8086 3.40844 10.4166 3.91228 10.4166H7.0656C7.5026 10.4166 7.87822 10.714 7.96126 11.1258L9.52974 18.9041C9.72096 19.5102 10.0966 19.7487 10.4817 19.7487H21.7722C21.7781 19.747 21.8582 19.7306 21.9934 19.6084C22.1448 19.4717 22.3268 19.2325 22.48 18.8622L24.1729 11.1125C24.2615 10.707 24.6341 10.4166 25.0658 10.4166H28.0877C28.5916 10.4166 29 10.8086 29 11.2922C29 11.7758 28.5916 12.1678 28.0877 12.1678H25.8066L24.2506 19.2907C24.2411 19.3342 24.2282 19.3769 24.2119 19.4185C23.9756 20.0235 23.6431 20.523 23.2439 20.8837C22.8534 21.2365 22.3451 21.5 21.7811 21.5H10.4817C9.03442 21.5 8.10284 20.4863 7.76508 19.3516C7.7578 19.3271 7.75163 19.3024 7.7466 19.2774L6.31296 12.1678H3.91228C3.40844 12.1678 3 11.7758 3 11.2922Z" fill="white"/>
</svg>
