<svg width="32" height="28" viewBox="0 0 32 28" fill="none" xmlns="http://www.w3.org/2000/svg">
<rect width="32" height="28" rx="4" fill="#192535"/>
<path d="M23.7679 7H8.23214C8.10446 7 8 7.10385 8 7.23077V9.07692C8 9.20385 8.10446 9.30769 8.23214 9.30769H23.7679C23.8955 9.30769 24 9.20385 24 9.07692V7.23077C24 7.10385 23.8955 7 23.7679 7ZM23.7679 18.6923H8.23214C8.10446 18.6923 8 18.7962 8 18.9231V20.7692C8 20.8962 8.10446 21 8.23214 21H23.7679C23.8955 21 24 20.8962 24 20.7692V18.9231C24 18.7962 23.8955 18.6923 23.7679 18.6923ZM23.7679 12.8462H8.23214C8.10446 12.8462 8 12.95 8 13.0769V14.9231C8 15.05 8.10446 15.1538 8.23214 15.1538H23.7679C23.8955 15.1538 24 15.05 24 14.9231V13.0769C24 12.95 23.8955 12.8462 23.7679 12.8462Z" fill="white"/>
</svg>
