<svg width="32" height="28" viewBox="0 0 32 28" fill="none" xmlns="http://www.w3.org/2000/svg">
<rect width="32" height="28" rx="4" fill="#192535"/>
<path d="M6.86 17.132H6.848C6 17.132 5.3 16.86 4.748 16.316C4.196 15.772 3.92 15.04 3.92 14.12C3.92 13.176 4.2 12.424 4.76 11.864C5.32 11.304 6.048 11.024 6.944 11.024C7.808 11.024 8.508 11.304 9.044 11.864C9.58 12.416 9.848 13.136 9.848 14.024C9.848 14.544 9.76 15.008 9.584 15.416C9.416 15.824 9.188 16.152 8.9 16.4C8.62 16.64 8.304 16.824 7.952 16.952C7.608 17.072 7.244 17.132 6.86 17.132ZM6.884 16.064H6.896C7.32 16.064 7.664 15.88 7.928 15.512C8.192 15.136 8.324 14.652 8.324 14.06C8.324 13.54 8.204 13.084 7.964 12.692C7.724 12.292 7.372 12.092 6.908 12.092C6.42 12.092 6.052 12.288 5.804 12.68C5.564 13.072 5.444 13.54 5.444 14.084C5.444 14.66 5.576 15.136 5.84 15.512C6.104 15.88 6.452 16.064 6.884 16.064ZM9.94944 17L10.0934 16.16L12.3134 13.52C12.6254 13.144 13.0174 12.736 13.4894 12.296L13.5014 12.26H11.0414L11.2574 11.156H15.2774L15.1214 12.056L12.9374 14.636C12.4574 15.188 12.0654 15.6 11.7614 15.872V15.896H14.4494L14.2334 17H9.94944ZM18.403 17.132H18.391C17.543 17.132 16.843 16.86 16.291 16.316C15.739 15.772 15.463 15.04 15.463 14.12C15.463 13.176 15.743 12.424 16.303 11.864C16.863 11.304 17.591 11.024 18.487 11.024C19.351 11.024 20.051 11.304 20.587 11.864C21.123 12.416 21.391 13.136 21.391 14.024C21.391 14.544 21.303 15.008 21.127 15.416C20.959 15.824 20.731 16.152 20.443 16.4C20.163 16.64 19.847 16.824 19.495 16.952C19.151 17.072 18.787 17.132 18.403 17.132ZM18.427 16.064H18.439C18.863 16.064 19.207 15.88 19.471 15.512C19.735 15.136 19.867 14.652 19.867 14.06C19.867 13.54 19.747 13.084 19.507 12.692C19.267 12.292 18.915 12.092 18.451 12.092C17.963 12.092 17.595 12.288 17.347 12.68C17.107 13.072 16.987 13.54 16.987 14.084C16.987 14.66 17.119 15.136 17.383 15.512C17.647 15.88 17.995 16.064 18.427 16.064ZM22.6084 17V12.896C22.6084 12.408 22.5924 11.828 22.5604 11.156H23.8444L23.9164 12.032H23.9524C24.1044 11.76 24.3404 11.524 24.6604 11.324C24.9884 11.124 25.3764 11.024 25.8244 11.024C26.4004 11.024 26.8884 11.228 27.2884 11.636C27.6964 12.044 27.9004 12.676 27.9004 13.532V17H26.4244V13.7C26.4244 13.252 26.3324 12.896 26.1484 12.632C25.9724 12.36 25.6924 12.224 25.3084 12.224C25.0284 12.224 24.7884 12.308 24.5884 12.476C24.3884 12.644 24.2444 12.848 24.1564 13.088C24.1084 13.208 24.0844 13.364 24.0844 13.556V17H22.6084Z" fill="white"/>
</svg>
