<svg width="32" height="28" viewBox="0 0 32 28" fill="none" xmlns="http://www.w3.org/2000/svg">
<rect width="32" height="28" rx="4" fill="#192535"/>
<path d="M10.18 19H7.38L5.21 9.564H7.926L8.472 13.064C8.49067 13.1853 8.64933 14.2913 8.948 16.382H8.976C9.10667 15.5047 9.29333 14.3847 9.536 13.022L10.138 9.564H12.84L13.428 13.19C13.5773 14.1327 13.7173 15.1733 13.848 16.312H13.876C13.96 15.6773 14.1187 14.5807 14.352 13.022L14.912 9.564H17.474L15.15 19H12.392L11.762 15.304C11.6127 14.436 11.482 13.4933 11.37 12.476H11.342C11.1553 13.8013 11.006 14.744 10.894 15.304L10.18 19ZM18.5555 18.944V9.704C19.2742 9.564 20.2682 9.494 21.5375 9.494C22.8442 9.494 23.8055 9.648 24.4215 9.956C25.2708 10.3573 25.6955 11.006 25.6955 11.902C25.6955 12.826 25.1822 13.484 24.1555 13.876V13.904C24.7342 14.0627 25.1868 14.3473 25.5135 14.758C25.8402 15.1593 26.0035 15.64 26.0035 16.2C26.0035 17.0493 25.6488 17.74 24.9395 18.272C24.2022 18.832 22.9048 19.112 21.0475 19.112C19.9648 19.112 19.1342 19.056 18.5555 18.944ZM21.0615 11.37V13.19H21.5655C22.6295 13.19 23.1615 12.8633 23.1615 12.21C23.1615 11.93 23.0542 11.7107 22.8395 11.552C22.6248 11.3933 22.3075 11.314 21.8875 11.314C21.5608 11.314 21.2855 11.3327 21.0615 11.37ZM21.0615 14.982V17.236C21.1828 17.2547 21.4255 17.264 21.7895 17.264C22.2468 17.264 22.6202 17.166 22.9095 16.97C23.1988 16.774 23.3435 16.48 23.3435 16.088C23.3435 15.3507 22.7835 14.982 21.6635 14.982H21.0615Z" fill="white"/>
</svg>
