<svg width="20" height="20" viewBox="0 0 20 20" fill="none" xmlns="http://www.w3.org/2000/svg">
<g clip-path="url(#clip0)">
<path d="M17.6656 12.631L16.0008 12.2912L13.9686 8.76559C13.9388 8.71391 13.9012 8.66707 13.8573 8.62672C13.5326 8.32836 13.1106 8.16406 12.6691 8.16406H7.33086C6.88937 8.16406 6.46742 8.32836 6.14266 8.62672C6.09875 8.66707 6.06125 8.71391 6.03145 8.76559L3.99918 12.2912L2.46094 12.6052V6.875C2.46094 5.19297 2.65711 3.39844 5 3.39844H8.85848C9.01922 4.05578 9.45563 4.61199 10.1266 4.99957C10.7718 5.37223 11.6369 5.58594 12.5 5.58594C12.8236 5.58594 13.0859 5.32359 13.0859 5V4.64844H14.0625C14.3861 4.64844 14.6484 4.38609 14.6484 4.0625C14.6484 3.73891 14.3861 3.47656 14.0625 3.47656H13.0859V2.14844H14.0625C14.3861 2.14844 14.6484 1.88609 14.6484 1.5625C14.6484 1.23891 14.3861 0.976562 14.0625 0.976562H13.0859V0.585938C13.0859 0.262344 12.8236 0 12.5 0C10.862 0 9.20625 0.762266 8.85656 2.22656H5C3.01516 2.22656 2.12742 3.26305 1.73223 4.13254C1.28906 5.10746 1.28906 6.21391 1.28906 6.875V13.0749C0.504844 13.6089 0 14.5094 0 15.4996V17.8125C0 18.1361 0.262344 18.3984 0.585938 18.3984H3.24406C3.34137 18.7497 3.52547 19.0742 3.78637 19.3441C4.19516 19.7671 4.73715 20 5.3125 20C5.88785 20 6.42984 19.7671 6.83863 19.3441C7.09953 19.0742 7.28363 18.7497 7.38094 18.3984H12.619C12.7163 18.7497 12.9004 19.0742 13.1613 19.3441C13.5702 19.7671 14.1121 20 14.6875 20C15.2629 20 15.8048 19.7671 16.2136 19.3441C16.4745 19.0742 16.6586 18.7497 16.7559 18.3984H19.4141C19.7377 18.3984 20 18.1361 20 17.8125V15.4996C20 14.1194 19.0193 12.9132 17.6656 12.631ZM10.7188 1.61711C11.0463 1.4227 11.4691 1.28293 11.9141 1.21613V4.37098C10.9832 4.23688 9.96094 3.77668 9.96094 2.8125C9.96094 2.31785 10.2159 1.91566 10.7188 1.61711ZM13.0062 9.44262L14.611 12.2266H10.5859V9.33594H12.6691C12.7909 9.33594 12.9082 9.3734 13.0062 9.44262ZM6.99379 9.44262C7.0918 9.3734 7.20906 9.33594 7.33086 9.33594H9.41406V12.2266H5.38902L6.99379 9.44262ZM5.3125 18.8281C4.78312 18.8281 4.33594 18.363 4.33594 17.8125C4.33594 17.274 4.77402 16.8359 5.3125 16.8359C5.85098 16.8359 6.28906 17.274 6.28906 17.8125C6.28906 18.363 5.84188 18.8281 5.3125 18.8281ZM14.6875 18.8281C14.1581 18.8281 13.7109 18.363 13.7109 17.8125C13.7109 17.274 14.149 16.8359 14.6875 16.8359C15.226 16.8359 15.6641 17.274 15.6641 17.8125C15.6641 18.363 15.2169 18.8281 14.6875 18.8281ZM18.8281 17.2266H16.7541C16.4983 16.3259 15.669 15.6641 14.6875 15.6641C13.706 15.6641 12.8767 16.3259 12.6209 17.2266H7.37906C7.12332 16.3259 6.29402 15.6641 5.3125 15.6641C4.33098 15.6641 3.50172 16.3259 3.24594 17.2266H1.17188V15.4996C1.17188 14.6715 1.76035 13.9477 2.56875 13.7792L4.43422 13.3984H15.5658L17.4289 13.7787C18.2396 13.9477 18.8281 14.6715 18.8281 15.4996V17.2266Z" fill="black" fill-opacity="0.65"/>
</g>
<defs>
<clipPath id="clip0">
<rect width="20" height="20" fill="white"/>
</clipPath>
</defs>
</svg>
