<svg width="21" height="20" viewBox="0 0 21 20" fill="none" xmlns="http://www.w3.org/2000/svg">
<g clip-path="url(#clip0)">
<path d="M19.3523 5.30014C18.4013 4.34921 17.1019 3.88443 15.7855 4.00116C15.5582 3.07907 15.0836 2.23328 14.3948 1.54465C13.3988 0.548553 12.0746 0 10.6659 0C9.25737 0 7.93306 0.548553 6.93712 1.54465C6.24834 2.23328 5.77363 3.07907 5.54628 4.00116C4.2299 3.88428 2.93031 4.34906 1.97939 5.30014C0.227829 7.05154 0.227829 9.90158 1.98061 11.6544L4.57216 14.2303V17.8906C4.57216 18.2143 4.83446 18.4766 5.1581 18.4766C5.48173 18.4766 5.74403 18.2143 5.74403 17.8906V14.2259L8.33238 11.653C8.54692 11.4383 8.73735 11.2053 8.90245 10.9561L10.08 12.1266V19.4141C10.08 19.7377 10.3423 20 10.6659 20C10.9895 20 11.2518 19.7377 11.2518 19.4141V12.1266L12.4294 10.9561C12.5946 11.2056 12.7854 11.4389 13.0007 11.6542L15.5878 14.2261V17.8906C15.5878 18.2143 15.8501 18.4766 16.1737 18.4766C16.4974 18.4766 16.7597 18.2143 16.7597 17.8906V14.2302L19.3523 11.653C21.1038 9.90158 21.1038 7.05154 19.3523 5.30014ZM7.76567 2.3732C8.54036 1.59851 9.57033 1.17188 10.6659 1.17188C11.7615 1.17188 12.7915 1.59851 13.5661 2.3732C14.3408 3.14789 14.7675 4.17786 14.7675 5.27344C14.7675 6.36871 14.341 7.39838 13.5668 8.17307L10.6659 11.0567L7.76567 8.17368C6.99098 7.39899 6.56435 6.36902 6.56435 5.27344C6.56435 4.17786 6.99098 3.14789 7.76567 2.3732ZM7.5049 10.8232L5.15581 13.1581L2.80809 10.8244C1.51353 9.52972 1.51353 7.4234 2.80809 6.12869C3.4987 5.43808 4.43803 5.0946 5.39384 5.16464C5.39308 5.20081 5.39247 5.23712 5.39247 5.27344C5.39247 6.68198 5.94102 8.00629 6.93834 9.0036L8.04826 10.107C7.90101 10.3682 7.71959 10.6085 7.5049 10.8232ZM16.1759 13.1583L13.828 10.8244C13.6125 10.609 13.4308 10.3683 13.2836 10.1071L14.3935 9.0036C14.3939 9.00314 14.3944 9.00284 14.3947 9.00238C15.3908 8.00629 15.9393 6.68198 15.9393 5.27344C15.9393 5.23712 15.9387 5.20081 15.938 5.16464C16.8938 5.0946 17.8331 5.43823 18.5237 6.12869C19.8183 7.4234 19.8183 9.52988 18.5249 10.8232L16.1759 13.1583Z" fill="black" fill-opacity="0.65"/>
</g>
<defs>
<clipPath id="clip0">
<rect width="20" height="20" fill="white" transform="translate(0.666687)"/>
</clipPath>
</defs>
</svg>
