<svg width="20" height="20" viewBox="0 0 20 20" fill="none" xmlns="http://www.w3.org/2000/svg">
<g clip-path="url(#clip0)">
<path d="M18.6312 10.0766H15.2922V6.00586C15.2922 5.25195 14.6789 4.63867 13.925 4.63867H11.0644V1.75762C11.0644 0.788477 10.2759 0 9.30675 0H5.98703C5.01789 0 4.22941 0.788477 4.22941 1.75762V4.63867H1.36874C0.614838 4.63867 0.0015564 5.25195 0.0015564 6.00586V18.6328C0.0015564 19.3867 0.614838 20 1.36874 20C10.9554 20 18.1929 19.9969 18.6312 19.9969C19.3852 19.9969 19.9984 19.3836 19.9984 18.6297V11.4434C19.9984 10.6895 19.3852 10.0766 18.6312 10.0766ZM5.98703 1.17188H9.30675C9.62976 1.17188 9.8925 1.43465 9.8925 1.75762V4.63867H5.40128V1.75762C5.40128 1.43465 5.66406 1.17188 5.98703 1.17188ZM1.36874 18.8281C1.26093 18.8281 1.17343 18.7406 1.17343 18.6328V6.00586C1.17343 5.89805 1.26093 5.81055 1.36874 5.81055H4.22941V7.53785C4.22941 7.86144 4.49175 8.12379 4.81535 8.12379C5.13894 8.12379 5.40128 7.86144 5.40128 7.53785V5.81055H9.8925V7.53785C9.8925 7.86144 10.1548 8.12379 10.4784 8.12379C10.802 8.12379 11.0644 7.86144 11.0644 7.53785V5.81055H13.925C14.0328 5.81055 14.1203 5.89805 14.1203 6.00586V10.0766H8.43124C7.67734 10.0766 7.06406 10.6895 7.06406 11.4434V18.6297C7.06406 18.6973 7.06914 18.7633 7.07851 18.8281H1.36874ZM18.8266 18.6297C18.8266 18.7371 18.7391 18.825 18.6312 18.825C18.3068 18.825 8.90167 18.825 8.43124 18.825C8.32382 18.825 8.23593 18.7371 8.23593 18.6297V11.4434C8.23593 11.3359 8.32382 11.2484 8.43124 11.2484H18.6312C18.7391 11.2484 18.8266 11.3359 18.8266 11.4434V18.6297Z" fill="black" fill-opacity="0.65"/>
<path d="M16.148 12.6147C15.8246 12.6147 15.5621 12.8772 15.5621 13.2007V14.939C15.5621 15.1456 15.4543 15.3272 15.2922 15.4315C15.0948 15.5595 15.2308 15.5245 12.0863 15.5245C11.7633 15.5245 11.5004 15.2616 11.5004 14.939V13.2007C11.5004 12.8772 11.2383 12.6147 10.9144 12.6147C10.591 12.6147 10.3285 12.8772 10.3285 13.2007V14.939C10.3285 15.9081 11.1172 16.6964 12.0863 16.6964C15.2554 16.6964 15.0771 16.7071 15.2922 16.6679C16.1113 16.5186 16.734 15.8003 16.734 14.939V13.2007C16.734 12.8772 16.4715 12.6147 16.148 12.6147Z" fill="black" fill-opacity="0.65"/>
</g>
<defs>
<clipPath id="clip0">
<rect width="20" height="20" fill="white"/>
</clipPath>
</defs>
</svg>
