<svg width="21" height="20" viewBox="0 0 21 20" fill="none" xmlns="http://www.w3.org/2000/svg">
<g clip-path="url(#clip0)">
<path d="M18.4193 9.75197V4.04787C18.4193 3.72428 18.157 3.46193 17.8334 3.46193H13.4669C13.7752 1.70072 11.6432 0.56127 10.3334 1.87108C9.02396 0.56213 6.89146 1.70006 7.19982 3.46197H2.83337C2.50978 3.46197 2.24744 3.72432 2.24744 4.04791V9.75197C1.1597 9.95443 0.333374 10.91 0.333374 12.0556V18.1103C0.333374 18.4338 0.595718 18.6962 0.919312 18.6962H2.05201C3.06505 18.6962 4.0765 18.4508 4.97689 17.9865C5.01029 17.9865 5.94494 17.4071 7.36474 17.4071H13.302C14.129 17.4071 14.9547 17.6075 15.6898 17.9865C16.5902 18.4508 17.6017 18.6962 18.6147 18.6962H19.7474C20.071 18.6962 20.3334 18.4338 20.3334 18.1103C20.3334 17.4588 20.3334 12.7492 20.3334 12.0556C20.3334 10.91 19.507 9.95443 18.4193 9.75197ZM8.52853 2.68174C8.78673 2.41303 9.22583 2.4208 9.48935 2.68432L10.1952 3.39022C10.2715 3.46651 10.3952 3.46651 10.4715 3.39022L11.1897 2.67205C11.6042 2.25748 12.3233 2.54834 12.3233 3.14162C12.3233 3.319 12.2542 3.48576 12.1288 3.61119L10.3334 5.40658L8.53798 3.61119C8.28165 3.35486 8.27845 2.94197 8.52853 2.68174ZM7.90334 4.63381L9.91908 6.64955C10.1479 6.87834 10.5189 6.87838 10.7477 6.64955L12.7635 4.63381H17.2474V9.71178H16.1631L15.979 8.2383C15.9058 7.65311 15.4059 7.21178 14.8161 7.21178H12.7256C12.1358 7.21178 11.6359 7.65307 11.5627 8.2383L11.3786 9.71178H9.2881L9.10392 8.2383C9.03076 7.65311 8.53084 7.21178 7.94107 7.21178H5.85056C5.2608 7.21178 4.76087 7.65307 4.68771 8.2383L4.50353 9.71178H3.41931V4.63381H7.90334ZM5.68462 9.71178L5.85064 8.38365H7.94115L8.10716 9.71178H5.68462ZM12.5596 9.71178L12.7256 8.38365H14.8161L14.9822 9.71178H12.5596ZM1.50525 12.0555C1.50525 11.4094 2.03095 10.8837 2.67712 10.8837H17.9896C18.6358 10.8837 19.1615 11.4094 19.1615 12.0555V13.4618H1.50525V12.0555ZM19.1615 17.5243H18.6147C17.7877 17.5243 16.962 17.3239 16.2269 16.9449C15.3265 16.4806 14.3151 16.2352 13.302 16.2352H7.36474C5.67302 16.2352 4.43591 16.9449 4.43986 16.9449C3.70474 17.3239 2.87904 17.5243 2.05201 17.5243H1.50525V14.6337H19.1615V17.5243Z" fill="black" fill-opacity="0.65"/>
</g>
<defs>
<clipPath id="clip0">
<rect width="20" height="20" fill="white" transform="translate(0.333374)"/>
</clipPath>
</defs>
</svg>
