<svg width="20" height="20" viewBox="0 0 20 20" fill="none" xmlns="http://www.w3.org/2000/svg">
<g clip-path="url(#clip0)">
<path d="M19.9132 16.6806C19.9032 16.6548 20.0554 16.9849 17.7732 12.0581V2.77427C17.7732 2.12818 17.2476 1.60254 16.6015 1.60254H3.39994C2.75384 1.60254 2.2282 2.12818 2.2282 2.77427V12.058L0.100997 16.6465C-0.0564841 16.9866 -0.0394939 17.4681 0.220866 17.8488C0.455877 18.1923 0.844659 18.3974 1.2609 18.3974H18.7388C19.623 18.3974 20.2348 17.5074 19.9132 16.6806ZM3.39994 2.77427H16.6015V11.6013H3.39994V2.77427ZM7.98541 17.2257L8.4004 15.8977H11.601L12.0159 17.2257H7.98541ZM18.7388 17.2257H13.2436L12.5909 15.1371C12.5145 14.8925 12.2879 14.726 12.0317 14.726H7.96971C7.71345 14.726 7.48695 14.8925 7.41052 15.1371L6.75782 17.2257H1.2609C1.19891 17.2257 1.16095 17.1669 1.17524 17.1152L3.18821 12.7731H16.813L18.8244 17.1152C18.8388 17.1668 18.8008 17.2257 18.7388 17.2257Z" fill="black" fill-opacity="0.65"/>
</g>
<defs>
<clipPath id="clip0">
<rect width="20" height="20" fill="white"/>
</clipPath>
</defs>
</svg>
