<svg width="21" height="20" viewBox="0 0 21 20" fill="none" xmlns="http://www.w3.org/2000/svg">
<g clip-path="url(#clip0)">
<path d="M12.7046 8.47148L15.0537 6.7577C15.5106 6.42434 15.2737 5.6984 14.7083 5.6984H11.8073L10.9103 2.92633C10.736 2.38773 9.97005 2.38664 9.79536 2.92633L8.89841 5.6984H5.99736C5.43173 5.6984 5.19533 6.42449 5.652 6.7577L8.0011 8.47148L7.10349 11.2454C6.92911 11.7844 7.54899 12.2328 8.0063 11.8992L10.3528 10.1873L12.6993 11.8992C13.1539 12.2307 13.7769 11.7856 13.6021 11.2454L12.7046 8.47148ZM11.459 8.42859L11.9313 9.88824L10.6982 8.98859C10.4924 8.83848 10.2133 8.83852 10.0075 8.98859L8.77446 9.88824L9.24676 8.42859C9.32469 8.18774 9.23915 7.92406 9.03462 7.77484L7.79474 6.87027H9.32473C9.57883 6.87027 9.80399 6.70649 9.88219 6.46473L10.3529 5.01004L10.8236 6.46473C10.9018 6.70645 11.127 6.87027 11.3811 6.87027H12.9111L11.6712 7.77484C11.4666 7.92406 11.3811 8.18774 11.459 8.42859Z" fill="black" fill-opacity="0.65"/>
<path d="M19.8473 18.4735L16.4946 12.5818C17.505 11.2624 18.1068 9.61207 18.1068 7.82301C18.1068 3.50937 14.6109 0 10.3138 0C6.01673 0 2.52083 3.50937 2.52083 7.82301C2.52083 9.62531 3.13141 11.2869 4.15544 12.6111L0.819345 18.4736C0.432548 19.1537 0.921845 20 1.70485 20H6.68727C7.21903 20 7.71294 19.7125 7.97622 19.2496L10.0302 15.6403C10.244 15.648 10.4043 15.6483 10.6359 15.6388L12.6904 19.2496C12.9538 19.7125 13.4477 20 13.9794 20H18.9618C19.744 20 20.2346 19.1546 19.8473 18.4735ZM6.95763 18.6701C6.9022 18.7676 6.7986 18.8281 6.68724 18.8281H1.96595L4.98395 13.5246C6.02017 14.5013 7.32149 15.1975 8.76681 15.4909L6.95763 18.6701ZM3.6927 7.82301C3.6927 4.15555 6.6629 1.17188 10.3138 1.17188C13.9647 1.17188 16.9349 4.15555 16.9349 7.82301C16.9349 11.4905 13.9647 14.4741 10.3138 14.4741C6.6629 14.4741 3.6927 11.4904 3.6927 7.82301ZM13.9794 18.8281C13.8681 18.8281 13.7645 18.7676 13.709 18.6701L11.896 15.4838C13.339 15.1839 14.6372 14.4821 15.6692 13.5007L18.7007 18.8281H13.9794Z" fill="black" fill-opacity="0.65"/>
</g>
<defs>
<clipPath id="clip0">
<rect width="20" height="20" fill="white" transform="translate(0.333374)"/>
</clipPath>
</defs>
</svg>
