<svg width="21" height="20" viewBox="0 0 21 20" fill="none" xmlns="http://www.w3.org/2000/svg">
<g clip-path="url(#clip0)">
<path d="M19.0832 2.8515H17.1692V0.585924C17.1692 0.262338 16.9068 0 16.5832 0H4.08354C3.75996 0 3.49762 0.262338 3.49762 0.585924V2.8515H2.16953V2.18745C2.16953 1.86386 1.90719 1.60152 1.5836 1.60152C1.26002 1.60152 0.997681 1.86386 0.997681 2.18745V4.99988C0.997681 5.32347 1.26002 5.58581 1.5836 5.58581C1.90719 5.58581 2.16953 5.32347 2.16953 4.99988V4.02334H3.49762V6.24985C3.49762 6.57344 3.75996 6.83578 4.08354 6.83578H16.5832C16.9068 6.83578 17.1692 6.57344 17.1692 6.24985V4.02334H18.4973V7.66732L10.1913 9.74383C9.93044 9.80903 9.74747 10.0434 9.74747 10.3123V12.2263H9.08342C8.77402 12.2263 8.51793 12.4669 8.49863 12.7756C8.16333 18.1407 8.18501 17.7837 8.18501 17.8121C8.18501 18.3846 8.40598 18.9285 8.8073 19.3436C9.65302 20.2186 11.0135 20.2189 11.8595 19.3436C12.2608 18.9285 12.4818 18.3846 12.4818 17.8121C12.4818 17.7838 12.5035 18.1402 12.1682 12.7756C12.1489 12.4669 11.8928 12.2263 11.5834 12.2263H10.9194V10.7697L19.2253 8.69323C19.4862 8.62804 19.6691 8.39367 19.6691 8.12481V3.43742C19.6691 3.11383 19.4068 2.8515 19.0832 2.8515ZM15.9973 5.66393H4.66947V1.17185H15.9973V5.66393ZM11.3098 17.8283C11.3011 18.3717 10.8575 18.8277 10.3334 18.8277C9.80927 18.8277 9.36568 18.3717 9.35697 17.8283L9.63388 13.3981H11.0329L11.3098 17.8283Z" fill="black" fill-opacity="0.65"/>
</g>
<defs>
<clipPath id="clip0">
<rect width="20" height="20" fill="white" transform="translate(0.333374)"/>
</clipPath>
</defs>
</svg>
