<svg width="20" height="20" viewBox="0 0 20 20" fill="none" xmlns="http://www.w3.org/2000/svg">
<g clip-path="url(#clip0)">
<path d="M19.9808 8.27062C19.9932 8.22265 19.9999 8.17199 19.9999 8.12476C19.9999 3.56763 16.5374 0 12.5001 0H11.5627C11.3101 0 11.086 0.161792 11.0065 0.401512L8.6397 7.53884H3.55813L2.80303 5.08477C2.51163 4.13781 1.60014 3.47646 0.586378 3.47646C0.262794 3.47646 0.000457764 3.7388 0.000457764 4.06238C0.000457764 4.38597 0.262794 4.6483 0.586378 4.6483C1.08254 4.6483 1.54373 4.97681 1.68299 5.42937C2.65319 8.58248 2.6885 8.6435 3.67332 11.401C4.03315 12.4086 5.16519 13.0856 6.49019 13.0856H8.5097L7.96268 14.4529C6.25836 14.1655 4.72688 15.4862 4.72688 17.187C4.72688 18.7254 5.97263 19.9994 7.50024 19.9994C8.84289 19.9994 9.94763 19.0214 10.2118 17.7729H12.2885C12.3984 18.2923 12.6533 18.7725 13.034 19.1625C14.1236 20.279 15.8762 20.2793 16.9661 19.1625C17.4867 18.6291 17.7734 17.9275 17.7734 17.187C17.7734 15.4859 16.2416 14.1656 14.5376 14.4529L13.9906 13.0856H16.0101C17.3337 13.0856 18.4647 12.41 18.8258 11.4043C20.0366 8.13023 19.9687 8.31796 19.9808 8.27062ZM11.9857 1.17184H12.5001C15.8098 1.17184 18.5342 3.97805 18.8058 7.53884H9.87431L11.9857 1.17184ZM7.50024 18.8276C6.63214 18.8276 5.89872 18.0763 5.89872 17.187C5.89872 16.3039 6.61718 15.5855 7.50024 15.5855C8.3833 15.5855 9.10175 16.3039 9.10175 17.187C9.10175 18.0763 8.36837 18.8276 7.50024 18.8276ZM16.6015 17.187C16.6015 18.0763 15.8682 18.8276 15 18.8276C14.1319 18.8276 13.3985 18.0763 13.3985 17.187C13.3985 16.3039 14.117 15.5855 15 15.5855C15.8831 15.5855 16.6015 16.3039 16.6015 17.187ZM13.4497 14.8885C12.8675 15.2825 12.4427 15.8918 12.2895 16.6011H10.2108C10.0576 15.8918 9.63283 15.2825 9.05062 14.8885L9.77185 13.0856H12.7284L13.4497 14.8885ZM17.7257 11.0007C17.4958 11.6215 16.6822 11.9137 16.0101 11.9137C15.7046 11.9137 6.83065 11.9137 6.49023 11.9137C5.68513 11.9137 4.96453 11.5323 4.77688 11.0069L3.95683 8.71068H18.5726L17.7257 11.0007Z" fill="black" fill-opacity="0.65"/>
</g>
<defs>
<clipPath id="clip0">
<rect width="20" height="20" fill="white"/>
</clipPath>
</defs>
</svg>
