<svg width="21" height="20" viewBox="0 0 21 20" fill="none" xmlns="http://www.w3.org/2000/svg">
<g clip-path="url(#clip0)">
<path d="M12.5877 10.0391H11.2987V6.21094H12.2752C12.5988 6.21094 12.8612 5.94859 12.8612 5.625C12.8612 5.30141 12.5988 5.03906 12.2752 5.03906H11.2987V3.71094H12.2752C12.5988 3.71094 12.8612 3.44859 12.8612 3.125C12.8612 2.80141 12.5988 2.53906 12.2752 2.53906H11.2987V1.17188H12.2752C12.5988 1.17188 12.8612 0.909531 12.8612 0.585938C12.8612 0.262344 12.5988 0 12.2752 0H9.15024C8.82664 0 8.5643 0.262344 8.5643 0.585938C8.5643 0.909531 8.82664 1.17188 9.15024 1.17188H10.1268V2.53906H9.15024C8.82664 2.53906 8.5643 2.80141 8.5643 3.125C8.5643 3.44859 8.82664 3.71094 9.15024 3.71094H10.1268V5.03906H9.15024C8.82664 5.03906 8.5643 5.30141 8.5643 5.625C8.5643 5.94859 8.82664 6.21094 9.15024 6.21094H10.1268V10.0391H8.83774C8.52363 10.0391 8.26539 10.2868 8.25231 10.6006C8.16918 12.5939 8.2418 15.6762 8.66043 17.6203C8.90285 18.7461 9.24774 19.4807 9.71485 19.866C9.81985 19.9526 9.95168 20 10.0877 20H11.3377C11.4738 20 11.6056 19.9526 11.7106 19.866C12.1777 19.4807 12.5226 18.7461 12.765 17.6203C13.1837 15.6762 13.2563 12.5938 13.1732 10.6006C13.1601 10.2868 12.9018 10.0391 12.5877 10.0391ZM11.9632 14.5109C11.7925 17.4638 11.3376 18.4844 11.0861 18.8281H10.3393C10.0879 18.4844 9.63293 17.4638 9.46223 14.5109C9.38551 13.1836 9.3936 11.9127 9.40762 11.2109H12.0179C12.0318 11.9127 12.0399 13.1836 11.9632 14.5109Z" fill="black" fill-opacity="0.65"/>
<path d="M6.33774 12.5391H6.29868V10.0001C6.29868 9.67646 6.03633 9.41412 5.71274 9.41412H5.67368V6.25006C5.67368 6.0281 5.54829 5.82521 5.34977 5.72599L2.84977 4.47599C2.46172 4.28197 2.0018 4.56349 2.0018 5.00006V9.41412H1.96274C1.63914 9.41412 1.3768 9.67646 1.3768 10.0001V12.5391H1.33774C1.01414 12.5391 0.751801 12.8015 0.751801 13.1251V19.4141C0.751801 19.7377 1.01414 20.0001 1.33774 20.0001H6.33774C6.66133 20.0001 6.92368 19.7377 6.92368 19.4141V13.1251C6.92368 12.8015 6.66133 12.5391 6.33774 12.5391ZM3.17368 5.94814L4.5018 6.6122V9.41412H3.17368V5.94814ZM2.54868 10.586H5.1268V12.5391H2.54868V10.586ZM5.7518 18.8282H1.92368V13.711H5.7518V18.8282Z" fill="black" fill-opacity="0.65"/>
<path d="M17.1753 4.72786C15.0215 4.79032 13.5016 6.89379 14.0989 8.98454L15.1268 12.582V19.414C15.1268 19.7375 15.3891 19.9999 15.7127 19.9999H18.8377C19.1613 19.9999 19.4236 19.7375 19.4236 19.414V12.582L20.4515 8.98454C21.0593 6.85723 19.4644 4.66563 17.1753 4.72786ZM17.3412 5.89926C18.7291 5.93942 19.7122 7.30614 19.3247 8.66255L18.3957 11.914H16.1547L15.2257 8.66258C14.8298 7.27684 15.867 5.85723 17.3412 5.89926ZM18.2518 18.828H16.2987V13.0858H18.2518V18.828Z" fill="black" fill-opacity="0.65"/>
</g>
<defs>
<clipPath id="clip0">
<rect width="20" height="20" fill="white" transform="translate(0.666687)"/>
</clipPath>
</defs>
</svg>
