<svg width="21" height="20" viewBox="0 0 21 20" fill="none" xmlns="http://www.w3.org/2000/svg">
<g clip-path="url(#clip0)">
<path d="M15.8412 7.65625H15.8401C15.4366 6.78613 14.8128 6.04395 14.0181 5.4932C13.11 4.86391 12.046 4.53125 10.9412 4.53125H8.54611C6.96072 4.53125 5.54326 5.45723 4.89611 6.875H3.06775V5.70312H3.65369C3.97728 5.70312 4.23962 5.44078 4.23962 5.11719C4.23962 4.79359 3.97728 4.53125 3.65369 4.53125H1.30994C0.986343 4.53125 0.723999 4.79359 0.723999 5.11719C0.723999 5.44078 0.986343 5.70312 1.30994 5.70312H1.89587V6.95687C0.99521 7.21266 0.333374 8.04191 0.333374 9.02344V10.9766C0.333374 12.1832 1.17974 13.1953 2.30982 13.452C2.46947 14.59 3.44892 15.4688 4.63025 15.4688C5.78947 15.4688 6.75423 14.6226 6.94083 13.5156H13.726C13.9126 14.6226 14.8773 15.4688 16.0365 15.4688C17.1958 15.4688 18.1605 14.6226 18.3471 13.5156H19.7474C20.071 13.5156 20.3334 13.2533 20.3334 12.9297V12.1484C20.3334 9.67145 18.3182 7.65625 15.8412 7.65625ZM8.54611 5.70312H10.9412C12.5099 5.70312 13.9485 6.58641 14.6752 7.94805C13.8717 8.26914 13.006 8.4375 12.1411 8.4375C10.5958 8.4375 9.22642 7.51039 8.65248 6.07559L8.50384 5.70395C8.51794 5.70375 8.53197 5.70312 8.54611 5.70312ZM4.63025 14.2969C3.98408 14.2969 3.45837 13.7712 3.45837 13.125C3.45837 12.4788 3.98408 11.9531 4.63025 11.9531C5.27642 11.9531 5.80212 12.4788 5.80212 13.125C5.80212 13.7712 5.27642 14.2969 4.63025 14.2969ZM16.0365 14.2969C15.3903 14.2969 14.8646 13.7712 14.8646 13.125C14.8646 12.4788 15.3903 11.9531 16.0365 11.9531C16.6827 11.9531 17.2084 12.4788 17.2084 13.125C17.2084 13.7712 16.6827 14.2969 16.0365 14.2969ZM19.1615 12.3438H18.2459C17.9234 11.4345 17.055 10.7812 16.0365 10.7812C15.018 10.7812 14.1497 11.4345 13.8271 12.3438H6.83962C6.51712 11.4345 5.64873 10.7812 4.63025 10.7812C3.63751 10.7812 2.78755 11.402 2.44654 12.2755C1.90064 12.096 1.50525 11.5817 1.50525 10.9766V9.02344C1.50525 8.48496 1.94333 8.04688 2.48181 8.04688H5.29431C5.54654 8.04688 5.77041 7.88547 5.85017 7.64621C6.10341 6.88652 6.65408 6.28992 7.3472 5.9677L7.56443 6.51078C7.93169 7.42902 8.55873 8.20746 9.37763 8.76188C10.1966 9.31633 11.1522 9.60938 12.1411 9.60938C13.327 9.60938 14.514 9.33914 15.5842 8.82812H15.8412C17.672 8.82812 19.1615 10.3176 19.1615 12.1484V12.3438Z" fill="black" fill-opacity="0.65"/>
<path d="M7.63806 8.82812H6.46619C6.14259 8.82812 5.88025 9.09047 5.88025 9.41406C5.88025 9.73766 6.14259 10 6.46619 10H7.63806C7.96166 10 8.224 9.73766 8.224 9.41406C8.224 9.09047 7.96166 8.82812 7.63806 8.82812Z" fill="black" fill-opacity="0.65"/>
</g>
<defs>
<clipPath id="clip0">
<rect width="20" height="20" fill="white" transform="translate(0.333374)"/>
</clipPath>
</defs>
</svg>
