<svg width="20" height="20" viewBox="0 0 20 20" fill="none" xmlns="http://www.w3.org/2000/svg">
<g clip-path="url(#clip0)">
<path d="M19.8283 8.1015L18.1711 6.44424C18.1706 6.44379 18.1702 6.44318 18.1697 6.44272L13.4474 1.72058C13.1439 1.41708 12.7405 1.25 12.3114 1.25C11.8822 1.25 11.4787 1.41708 11.1754 1.72058C10.954 1.94199 10.8025 2.22366 10.7375 2.53525C10.4024 4.14047 9.0863 5.37216 7.46277 5.59998C7.27859 5.62592 7.11777 5.73761 7.02911 5.90088L6.45874 6.95251L6.12274 6.84052C5.81558 6.73813 5.48386 6.90399 5.38162 7.211C5.27924 7.51801 5.4451 7.84988 5.75211 7.95227L5.89127 7.99866L5.38193 8.93738L4.95087 8.79364C4.64371 8.69125 4.31198 8.85712 4.20975 9.16412C4.10736 9.47113 4.27322 9.80301 4.58023 9.9054L4.81461 9.98337L4.41681 10.7167H3.71094C1.66473 10.7167 0 12.3814 0 14.4276V16.6403C0 17.825 0.963745 18.7888 2.14844 18.7888H8.7561C9.53873 18.7888 10.2744 18.484 10.8278 17.9306L19.8283 8.93005C20.0572 8.70132 20.0572 8.33038 19.8283 8.1015ZM1.17188 14.4276C1.17188 13.0276 2.31094 11.8886 3.71094 11.8886H4.76562C4.98047 11.8886 5.17822 11.7709 5.28061 11.582L5.9436 10.3598L6.92413 10.6866C6.98547 10.7071 7.04803 10.7169 7.10953 10.7169C7.35474 10.7169 7.58347 10.5615 7.66525 10.316C7.76764 10.009 7.60162 9.67728 7.29462 9.57489L6.51108 9.31366L7.02042 8.37494L8.09601 8.73352C8.1575 8.75397 8.21991 8.76373 8.2814 8.76373C8.52661 8.76373 8.75534 8.60855 8.83713 8.36304C8.93951 8.05603 8.77365 7.72415 8.46664 7.62177L7.58789 7.3288L7.92374 6.70959C9.897 6.31088 11.4694 4.76318 11.8846 2.77481C11.9031 2.68692 11.9443 2.60895 12.0041 2.54929C12.0862 2.46704 12.1953 2.42188 12.3114 2.42188C12.4275 2.42188 12.5368 2.46704 12.6189 2.54929L16.9281 6.85852L8.51349 15.2731H1.17188V14.4276ZM9.99908 17.1021C9.66705 17.4341 9.22577 17.6169 8.7561 17.6169H2.14844C1.60995 17.6169 1.17188 17.1788 1.17188 16.6403V16.445H8.7561C8.91159 16.445 9.06052 16.3834 9.17038 16.2735L17.7568 7.68707L18.5854 8.51578L9.99908 17.1021Z" fill="black" fill-opacity="0.65"/>
<path d="M19.4141 16.3276H14.7266C14.4029 16.3276 14.1406 16.5901 14.1406 16.9136C14.1406 17.2372 14.4029 17.4995 14.7266 17.4995H19.4141C19.7377 17.4995 20 17.2372 20 16.9136C20 16.5901 19.7377 16.3276 19.4141 16.3276Z" fill="black" fill-opacity="0.65"/>
<path d="M19.4141 13.9839H17.0703C16.7467 13.9839 16.4844 14.2463 16.4844 14.5698C16.4844 14.8935 16.7467 15.1558 17.0703 15.1558H19.4141C19.7377 15.1558 20 14.8935 20 14.5698C20 14.2463 19.7377 13.9839 19.4141 13.9839Z" fill="black" fill-opacity="0.65"/>
</g>
<defs>
<clipPath id="clip0">
<rect width="20" height="20" fill="white"/>
</clipPath>
</defs>
</svg>
