<svg width="21" height="20" viewBox="0 0 21 20" fill="none" xmlns="http://www.w3.org/2000/svg">
<g clip-path="url(#clip0)">
<path d="M17.6079 0H3.72551C3.07681 0 2.54904 0.527765 2.54904 1.17647V18.8235C2.54904 19.4722 3.07681 20 3.72551 20H17.6079C18.2566 20 18.7843 19.4722 18.7843 18.8235V1.17647C18.7843 0.527765 18.2566 0 17.6079 0ZM3.72551 1.17647H17.6079V5.01961H3.72492C3.72477 1.10463 3.72159 1.17647 3.72551 1.17647ZM3.72551 18.8235L3.725 6.19608H17.6079V18.8235H3.72551Z" fill="black" fill-opacity="0.65"/>
<path d="M11.9216 3.68624H12.549C12.8739 3.68624 13.1373 3.42287 13.1373 3.098C13.1373 2.77314 12.8739 2.50977 12.549 2.50977H11.9216C11.5967 2.50977 11.3334 2.77314 11.3334 3.098C11.3334 3.42287 11.5967 3.68624 11.9216 3.68624Z" fill="black" fill-opacity="0.65"/>
<path d="M15.0588 3.68624H15.6863C16.0112 3.68624 16.2745 3.42287 16.2745 3.098C16.2745 2.77314 16.0112 2.50977 15.6863 2.50977H15.0588C14.734 2.50977 14.4706 2.77314 14.4706 3.098C14.4706 3.42287 14.734 3.68624 15.0588 3.68624Z" fill="black" fill-opacity="0.65"/>
<path d="M10.6667 7.5293C7.53484 7.5293 5.17123 10.4032 5.78041 13.4744C6.23092 15.7604 8.25048 17.4901 10.6667 17.4901C13.4129 17.4901 15.6471 15.2559 15.6471 12.5097C15.6471 9.76349 13.4129 7.5293 10.6667 7.5293ZM10.6667 8.70577C12.4073 8.70577 13.8785 9.88094 14.3288 11.4795C13.5858 11.5152 12.7617 11.4329 11.9668 11.4277C10.2242 11.4164 8.47594 11.7764 6.86323 12.4724C6.88331 10.392 8.58162 8.70577 10.6667 8.70577ZM10.6667 16.3136C8.97699 16.3136 7.54135 15.2061 7.04688 13.6789C8.58782 12.9642 10.2771 12.5928 11.9593 12.6042C12.7693 12.6094 13.6071 12.6997 14.4677 12.6497C14.3938 14.6826 12.7173 16.3136 10.6667 16.3136Z" fill="black" fill-opacity="0.65"/>
<path d="M5.64709 3.68624H8.1569C8.48176 3.68624 8.74513 3.42287 8.74513 3.098C8.74513 2.77314 8.48176 2.50977 8.1569 2.50977H5.64709C5.32223 2.50977 5.05885 2.77314 5.05885 3.098C5.05885 3.42287 5.32223 3.68624 5.64709 3.68624Z" fill="black" fill-opacity="0.65"/>
</g>
<defs>
<clipPath id="clip0">
<rect width="20" height="20" fill="white" transform="translate(0.666687)"/>
</clipPath>
</defs>
</svg>
