<svg width="21" height="20" viewBox="0 0 21 20" fill="none" xmlns="http://www.w3.org/2000/svg">
<g clip-path="url(#clip0)">
<path d="M20.0781 14.4173H20.0115C19.8405 12.6793 18.8684 11.0722 17.2309 9.844C13.5895 7.11301 7.74512 7.11209 4.10255 9.844C2.46503 11.0721 1.49293 12.6793 1.3219 14.4173H1.25528C0.863952 14.4173 0.581912 14.7928 0.690002 15.1682L1.94485 19.5277C2.01738 19.7797 2.24789 19.9532 2.51013 19.9532H18.8233C19.0856 19.9532 19.316 19.7797 19.3886 19.5277L20.6434 15.1682C20.7517 14.7921 20.4687 14.4173 20.0781 14.4173ZM18.5745 13.3956C18.6975 13.7258 18.7829 14.0672 18.827 14.4172H17.9207C18.034 13.998 18.2655 13.6363 18.5745 13.3956ZM18.0306 12.3412C17.7296 12.5408 17.4674 12.8013 17.2552 13.1052C16.137 11.5085 13.9809 11.5087 12.8626 13.1044C11.746 11.511 9.59071 11.5061 8.47062 13.1044C7.35191 11.5081 5.19586 11.5091 4.07808 13.1052C3.86593 12.8013 3.60361 12.5408 3.30265 12.3412C6.30235 7.86149 15.0251 7.85263 18.0306 12.3412ZM16.5891 14.4173H13.5282C13.7367 13.6447 14.3438 13.084 15.0586 13.084C15.7735 13.084 16.3807 13.6446 16.5891 14.4173ZM12.1971 14.4173H9.1362C9.34464 13.6447 9.95175 13.084 10.6666 13.084C11.3815 13.084 11.9887 13.6446 12.1971 14.4173ZM7.80507 14.4173H4.74418C4.95262 13.6447 5.55973 13.084 6.27461 13.084C6.98949 13.084 7.59671 13.6446 7.80507 14.4173ZM2.75888 13.3956C3.06787 13.6363 3.29929 13.9979 3.41265 14.4172H2.50638C2.55049 14.0672 2.63586 13.7258 2.75888 13.3956ZM18.3805 18.7768H2.95287L2.03666 15.5937H19.2967L18.3805 18.7768Z" fill="black" fill-opacity="0.65"/>
<path d="M7.11862 6.20878C7.30291 6.47637 7.66917 6.54391 7.93668 6.3597C8.20423 6.17545 8.27181 5.80919 8.0876 5.54164C7.71064 4.99412 7.71064 4.13627 8.0876 3.58875C8.74325 2.63638 8.74325 1.25391 8.0876 0.301579C7.90335 0.0340281 7.53709 -0.0335881 7.26954 0.15066C7.00199 0.334908 6.93441 0.70117 7.11862 0.968721C7.49558 1.51624 7.49558 2.37409 7.11862 2.92161C6.46293 3.87398 6.46293 5.2564 7.11862 6.20878Z" fill="black" fill-opacity="0.65"/>
<path d="M10.2109 6.20876C10.3952 6.47635 10.7615 6.54388 11.029 6.35967C11.2965 6.17543 11.3641 5.80917 11.1799 5.54161C10.803 4.9941 10.803 4.13624 11.1799 3.58873C11.8356 2.63635 11.8356 1.25389 11.1799 0.301555C10.9957 0.033964 10.6294 -0.0335325 10.3618 0.150636C10.0943 0.334884 10.0267 0.701145 10.2109 0.968697C10.5879 1.51625 10.5879 2.37403 10.2109 2.92158C9.55528 3.87396 9.55528 5.25638 10.2109 6.20876Z" fill="black" fill-opacity="0.65"/>
<path d="M13.5594 6.20878C13.7437 6.47637 14.1099 6.54391 14.3775 6.3597C14.645 6.17545 14.7126 5.80919 14.5284 5.54164C14.1515 4.99408 14.1515 4.13631 14.5284 3.58875C15.184 2.63638 15.184 1.25391 14.5284 0.301579C14.3442 0.0340281 13.9779 -0.0335881 13.7104 0.15066C13.4428 0.334908 13.3752 0.70117 13.5594 0.968721C13.9364 1.51624 13.9364 2.37409 13.5594 2.92161C12.9038 3.87398 12.9038 5.2564 13.5594 6.20878Z" fill="black" fill-opacity="0.65"/>
</g>
<defs>
<clipPath id="clip0">
<rect width="20" height="20" fill="white" transform="translate(0.666687)"/>
</clipPath>
</defs>
</svg>
