<svg width="21" height="20" viewBox="0 0 21 20" fill="none" xmlns="http://www.w3.org/2000/svg">
<g clip-path="url(#clip0)">
<path d="M15.0841 0H6.24933C5.27985 0 4.49111 0.788735 4.49111 1.75821V18.2418C4.49111 19.2113 5.27985 20 6.24933 20H15.0841C16.0535 20 16.8423 19.2113 16.8423 18.2418V1.75821C16.8423 0.788735 16.0535 0 15.0841 0ZM15.6701 11.4732H13.6085C13.4276 11.4732 13.2569 11.5567 13.1458 11.6995L12.2968 12.7916L11.4054 11.2764L13.7885 8.9633C14.2401 8.52496 14.4888 7.94084 14.4888 7.31855C14.4888 5.38221 12.2045 4.32087 10.6667 5.48719C9.12929 4.32114 6.84462 5.38193 6.84462 7.31855C6.84462 7.94084 7.09331 8.52496 7.54494 8.9633L10.0425 11.3875L9.5822 14.4558L8.72536 11.7213C8.57002 11.2255 7.89009 11.1623 7.64746 11.6236L6.48837 13.8267H5.66326V3.52545H15.6701V11.4732ZM10.6667 10.3599L8.36126 8.12225C7.62136 7.40411 8.15015 6.17243 9.21434 6.17243C10.1082 6.10479 10.3099 7.30214 11.0749 6.70036C12.1183 5.36103 14.1408 6.84969 12.9721 8.12225L10.6667 10.3599ZM5.66326 14.9989H6.84228C7.0599 14.9989 7.25964 14.8783 7.36091 14.6857L8.02837 13.417L8.98636 16.4743H5.66326V14.9989ZM11.0008 12.9003L11.7244 14.1302C11.9341 14.4864 12.4382 14.5196 12.6923 14.1928L13.8953 12.6454H15.6701V16.4744H10.4647L11.0008 12.9003ZM6.24933 1.17214H15.0841C15.4072 1.17214 15.6701 1.43505 15.6701 1.75821V2.35331H5.66326V1.75821C5.66326 1.43505 5.92613 1.17214 6.24933 1.17214ZM15.0841 18.8279H6.24933C5.92617 18.8279 5.66326 18.5649 5.66326 18.2418V17.6465H15.6701V18.2418C15.6701 18.5649 15.4072 18.8279 15.0841 18.8279Z" fill="black" fill-opacity="0.65"/>
</g>
<defs>
<clipPath id="clip0">
<rect width="20" height="20" fill="white" transform="translate(0.666687)"/>
</clipPath>
</defs>
</svg>
