<svg width="21" height="20" viewBox="0 0 21 20" fill="none" xmlns="http://www.w3.org/2000/svg">
<g clip-path="url(#clip0)">
<path d="M3.45837 6.21094H6.58337C6.90697 6.21094 7.16931 5.94859 7.16931 5.625V3.125C7.16931 2.80141 6.90697 2.53906 6.58337 2.53906H3.45837C3.13478 2.53906 2.87244 2.80141 2.87244 3.125V5.625C2.87244 5.94859 3.13478 6.21094 3.45837 6.21094ZM4.04431 3.71094H5.99744V5.03906H4.04431V3.71094Z" fill="black" fill-opacity="0.65"/>
<path d="M9.08337 6.21094H12.2084C12.532 6.21094 12.7943 5.94859 12.7943 5.625V3.125C12.7943 2.80141 12.532 2.53906 12.2084 2.53906H9.08337C8.75978 2.53906 8.49744 2.80141 8.49744 3.125V5.625C8.49744 5.94859 8.75978 6.21094 9.08337 6.21094ZM9.66931 3.71094H11.6224V5.03906H9.66931V3.71094Z" fill="black" fill-opacity="0.65"/>
<path d="M9.08337 11.2109H12.2084C12.532 11.2109 12.7943 10.9486 12.7943 10.625V8.125C12.7943 7.80141 12.532 7.53906 12.2084 7.53906H9.08337C8.75978 7.53906 8.49744 7.80141 8.49744 8.125V10.625C8.49744 10.9486 8.75978 11.2109 9.08337 11.2109ZM9.66931 8.71094H11.6224V10.0391H9.66931V8.71094Z" fill="black" fill-opacity="0.65"/>
<path d="M3.45837 11.2109H6.58337C6.90697 11.2109 7.16931 10.9486 7.16931 10.625V8.125C7.16931 7.80141 6.90697 7.53906 6.58337 7.53906H3.45837C3.13478 7.53906 2.87244 7.80141 2.87244 8.125V10.625C2.87244 10.9486 3.13478 11.2109 3.45837 11.2109ZM4.04431 8.71094H5.99744V10.0391H4.04431V8.71094Z" fill="black" fill-opacity="0.65"/>
<path d="M19.7474 16.8359C20.071 16.8359 20.3334 16.5736 20.3334 16.25V11.875C20.3334 10.8566 19.4702 10.0391 18.4584 10.0391C17.4452 10.0391 16.5834 10.8578 16.5834 11.875V16.25C16.5834 16.5736 16.8457 16.8359 17.1693 16.8359H17.8724V18.8281H15.2943V0.585938C15.2943 0.262344 15.032 0 14.7084 0H0.919312C0.595718 0 0.333374 0.262344 0.333374 0.585938V19.4141C0.333374 19.7377 0.595718 20 0.919312 20H19.7474C20.071 20 20.3334 19.7377 20.3334 19.4141C20.3334 19.0905 20.071 18.8281 19.7474 18.8281H19.0443V16.8359H19.7474ZM1.50525 1.17188H14.1224V18.8281H12.7943V17.5C12.7943 17.1764 12.532 16.9141 12.2084 16.9141C11.8848 16.9141 11.6224 17.1764 11.6224 17.5V18.8281H10.2943V15.625C10.2943 14.268 9.19033 13.1641 7.83337 13.1641C6.47642 13.1641 5.37244 14.268 5.37244 15.625V18.8281H4.04431V17.5C4.04431 17.1764 3.78197 16.9141 3.45837 16.9141C3.13478 16.9141 2.87244 17.1764 2.87244 17.5V18.8281H1.50525V1.17188ZM6.54431 18.8281V15.625C6.54431 14.9142 7.12259 14.3359 7.83337 14.3359C8.54416 14.3359 9.12244 14.9142 9.12244 15.625V18.8281H6.54431ZM17.7552 11.875C17.7552 11.5212 18.0838 11.2109 18.4584 11.2109C18.8329 11.2109 19.1615 11.5212 19.1615 11.875V15.6641H17.7552V11.875Z" fill="black" fill-opacity="0.65"/>
</g>
<defs>
<clipPath id="clip0">
<rect width="20" height="20" fill="white" transform="translate(0.333374)"/>
</clipPath>
</defs>
</svg>
