<svg width="21" height="20" viewBox="0 0 21 20" fill="none" xmlns="http://www.w3.org/2000/svg">
<g clip-path="url(#clip0)">
<path d="M8.61375 13.8168V15.9366C8.61375 16.8848 9.38516 17.6563 10.3334 17.6563C11.2816 17.6563 12.053 16.8848 12.053 15.9366V13.8168C12.053 12.8686 11.2816 12.0972 10.3334 12.0972C9.38516 12.0972 8.61375 12.8686 8.61375 13.8168ZM10.8811 13.8168V15.9366C10.8811 16.2387 10.6354 16.4844 10.3334 16.4844C10.0314 16.4844 9.78563 16.2387 9.78563 15.9366V13.8168C9.78563 13.5147 10.0313 13.269 10.3334 13.269C10.6354 13.269 10.8811 13.5147 10.8811 13.8168Z" fill="black" fill-opacity="0.65"/>
<path d="M20.1736 0.18387C19.9515 -0.0514819 19.5807 -0.0623412 19.3454 0.159729L18.5378 0.921565C18.3108 0.814768 18.0576 0.754729 17.7906 0.754729C16.8192 0.754729 16.0289 1.54496 16.0289 2.51629C16.0289 2.5186 16.0291 2.52086 16.0291 2.52317C15.9661 2.51633 15.9022 2.51254 15.8373 2.51254C14.8666 2.51254 14.0768 3.3018 14.0758 4.27235C14.0498 4.27121 14.0237 4.27035 13.9974 4.27035C13.0261 4.27035 12.2358 5.06055 12.2358 6.03192C12.2358 6.27938 12.2873 6.51492 12.3798 6.72879C11.2173 7.78512 9.43429 7.78188 8.27566 6.71887C8.36546 6.50766 8.41519 6.27547 8.41519 6.03188C8.41519 5.06055 7.62499 4.27031 6.65363 4.27031C6.61683 4.27031 6.58042 4.27184 6.54417 4.27407C6.54417 3.30274 5.75394 2.5125 4.78257 2.5125C4.7337 2.5125 4.68542 2.51504 4.63753 2.51895C4.63753 2.51805 4.63761 2.51715 4.63761 2.51621C4.63761 1.54489 3.84741 0.754651 2.87604 0.754651C2.60901 0.754651 2.35581 0.81469 2.12878 0.921487L1.32135 0.159729C1.08596 -0.0623803 0.715142 -0.0514819 0.493072 0.18387C0.271001 0.419221 0.281821 0.79012 0.517212 1.01215L1.29323 1.74422C1.17897 1.9775 1.1146 2.23949 1.1146 2.51629C1.1146 3.48762 1.90483 4.27789 2.8762 4.27789C2.92507 4.27789 2.97335 4.27535 3.02124 4.27145C3.02124 4.27235 3.02116 4.27324 3.02116 4.27414C3.02116 5.24547 3.81136 6.03574 4.78272 6.03574C4.81952 6.03574 4.85593 6.03422 4.89218 6.03199C4.89218 7.00332 5.68245 7.79356 6.65378 7.79356C6.95429 7.79356 7.23738 7.71774 7.48519 7.58453C8.13566 8.18071 8.92781 8.53606 9.7475 8.65024V9.79586C7.78359 10.0807 6.27007 11.7752 6.27007 13.8168V15.9367C6.26999 18.1772 8.09281 20 10.3334 20C12.5739 20 14.3967 18.1772 14.3967 15.9366V13.8168C14.3967 11.7752 12.8832 10.0807 10.9193 9.79578V8.65016C11.7366 8.53621 12.5268 8.1825 13.1761 7.58957C13.4215 7.71953 13.701 7.79352 13.9975 7.79352C14.9682 7.79352 15.758 7.00422 15.759 6.03371C15.785 6.03485 15.8111 6.03571 15.8374 6.03571C16.8087 6.03571 17.599 5.24547 17.599 4.2741C17.599 4.2718 17.5988 4.26953 17.5988 4.26727C17.6618 4.2741 17.7258 4.27789 17.7906 4.27789C18.7619 4.27789 19.5522 3.48762 19.5522 2.51629C19.5522 2.23949 19.4878 1.9775 19.3735 1.74422L20.1495 1.01215C20.3849 0.79012 20.3957 0.41926 20.1736 0.18387ZM2.28647 2.51629C2.28647 2.19114 2.551 1.9266 2.8762 1.9266C3.2014 1.9266 3.46589 2.1911 3.46589 2.51629C3.46589 2.84149 3.2014 3.10602 2.8762 3.10602C2.551 3.10602 2.28647 2.84145 2.28647 2.51629ZM4.19304 4.2741C4.19304 3.94895 4.45753 3.68442 4.78272 3.68442C5.10792 3.68442 5.37241 3.94895 5.37241 4.2741C5.37241 4.59926 5.10788 4.86383 4.78269 4.86383C4.45749 4.86383 4.19304 4.59926 4.19304 4.2741ZM6.06402 6.03192C6.06402 5.70676 6.32855 5.44223 6.65374 5.44223C6.9789 5.44223 7.24343 5.70672 7.24343 6.03192C7.24343 6.35707 6.97894 6.62164 6.65374 6.62164C6.32859 6.62164 6.06402 6.35707 6.06402 6.03192ZM13.2249 13.8168V15.9366C13.2249 17.531 11.9277 18.8281 10.3334 18.8281C8.73898 18.8281 7.44183 17.531 7.44183 15.9366V13.8168C7.44183 12.2224 8.73894 10.9253 10.3334 10.9253C11.9278 10.9253 13.2249 12.2224 13.2249 13.8168ZM13.9975 6.62164C13.6723 6.62164 13.4078 6.35707 13.4078 6.03192C13.4078 5.70676 13.6723 5.44223 13.9975 5.44223C14.3227 5.44223 14.5872 5.70672 14.5872 6.03192C14.5872 6.35707 14.3227 6.62164 13.9975 6.62164ZM15.8374 4.86383C15.5122 4.86383 15.2477 4.59926 15.2477 4.2741C15.2477 3.94895 15.5122 3.68442 15.8374 3.68442C16.1625 3.68442 16.4271 3.94895 16.4271 4.2741C16.4271 4.59926 16.1626 4.86383 15.8374 4.86383ZM17.7906 3.10602C17.4654 3.10602 17.2008 2.84145 17.2008 2.51629C17.2008 2.19114 17.4654 1.9266 17.7906 1.9266C18.1157 1.9266 18.3802 2.1911 18.3802 2.51629C18.3802 2.84149 18.1157 3.10602 17.7906 3.10602Z" fill="black" fill-opacity="0.65"/>
<path d="M5.4507 9.32363H5.19831V9.07129C5.19831 8.7477 4.93597 8.48535 4.61237 8.48535C4.28878 8.48535 4.02644 8.7477 4.02644 9.07129V9.32363H3.77409C3.4505 9.32363 3.18816 9.58598 3.18816 9.90957C3.18816 10.2332 3.4505 10.4955 3.77409 10.4955H4.02644V10.7479C4.02644 11.0715 4.28878 11.3338 4.61237 11.3338C4.93597 11.3338 5.19831 11.0715 5.19831 10.7479V10.4955H5.4507C5.77429 10.4955 6.03663 10.2332 6.03663 9.90957C6.03663 9.58598 5.77429 9.32363 5.4507 9.32363Z" fill="black" fill-opacity="0.65"/>
<path d="M17.8725 14.7924H17.6202V14.54C17.6202 14.2164 17.3578 13.9541 17.0342 13.9541C16.7106 13.9541 16.4483 14.2164 16.4483 14.54V14.7924H16.1959C15.8723 14.7924 15.61 15.0547 15.61 15.3783C15.61 15.7019 15.8723 15.9643 16.1959 15.9643H16.4483V16.2166C16.4483 16.5402 16.7106 16.8026 17.0342 16.8026C17.3578 16.8026 17.6202 16.5402 17.6202 16.2166V15.9643H17.8725C18.1961 15.9643 18.4585 15.7019 18.4585 15.3783C18.4585 15.0547 18.1961 14.7924 17.8725 14.7924Z" fill="black" fill-opacity="0.65"/>
</g>
<defs>
<clipPath id="clip0">
<rect width="20" height="20" fill="white" transform="translate(0.333374)"/>
</clipPath>
</defs>
</svg>
