<svg width="20" height="20" viewBox="0 0 20 20" fill="none" xmlns="http://www.w3.org/2000/svg">
<g clip-path="url(#clip0)">
<path d="M14.9666 14.3187C14.8849 14.2743 14.7914 14.2491 14.6921 14.2483C14.6578 14.2396 14.6235 14.2309 14.5894 14.2223C14.2443 14.1354 13.9312 14.0531 13.6495 13.9625C13.6157 13.9451 13.5797 13.9306 13.5417 13.9198C13.5219 13.9141 13.5021 13.9096 13.4823 13.9061C12.6912 13.6279 12.1734 13.2535 11.9238 12.4495C13.2184 11.7591 14.1016 10.3949 14.1016 8.82812V2.92969C14.1016 1.31426 12.7873 0 11.1719 0C10.8483 0 10.5859 0.262344 10.5859 0.585938V0.587539C10.0959 0.218867 9.48715 0 8.82812 0C8.50453 0 8.24219 0.262344 8.24219 0.585938V0.587539C7.75219 0.218867 7.1434 0 6.48438 0C6.16078 0 5.89844 0.262344 5.89844 0.585938V8.82812C5.89844 10.3949 6.7816 11.7591 8.07613 12.4495C7.8266 13.2535 7.30883 13.6279 6.51773 13.9061C6.49789 13.9096 6.47801 13.9141 6.45824 13.9197C6.42023 13.9306 6.38426 13.945 6.35043 13.9625C6.06875 14.0531 5.75562 14.1354 5.41055 14.2223C5.37645 14.2309 5.34219 14.2395 5.30781 14.2482C5.20852 14.249 5.11508 14.2743 5.0334 14.3186C3.24117 14.7873 1.21094 15.5547 1.21094 19.4141C1.21094 19.7377 1.47328 20 1.79688 20H18.2031C18.5267 20 18.7891 19.7377 18.7891 19.4141C18.7891 15.5547 16.7588 14.7873 14.9666 14.3187ZM4.72656 18.8281H2.40172C2.47996 17.6715 2.80184 16.8519 3.37922 16.3326C3.75352 15.996 4.21727 15.7875 4.72652 15.6245L4.72656 18.8281ZM11.7578 1.27227C12.2565 1.44906 12.6521 1.84508 12.8289 2.34375H11.7578V1.27227ZM9.41406 1.27227C9.91273 1.44906 10.3084 1.84508 10.4852 2.34375H9.41406V1.27227ZM7.07031 1.27227C7.56898 1.44906 7.96461 1.84508 8.14145 2.34375H7.07031V1.27227ZM7.07031 3.51562H12.9297L12.8289 2.34375H7.07031V3.51562ZM7.07031 8.82812V3.51562H12.9297V8.82812C12.9297 10.4436 11.6154 11.7578 10 11.7578C8.38457 11.7578 7.07031 10.4436 7.07031 8.82812ZM7.90133 14.5362C8.51902 14.1302 8.93969 13.5736 9.17789 12.8468C9.44355 12.9011 9.71852 12.9296 9.99996 12.9296C10.2814 12.9296 10.5564 12.9011 10.822 12.8468C11.0603 13.5736 11.4809 14.1302 12.0986 14.5362C12.2661 14.6463 12.4418 14.741 12.6232 14.8245C12.1317 15.8229 11.1169 16.4844 10 16.4844C8.88309 16.4844 7.86828 15.8229 7.37672 14.8245C7.55809 14.741 7.73383 14.6463 7.90133 14.5362ZM14.1016 18.8281H5.89844V15.3077C6.02031 15.2766 6.14246 15.2449 6.26434 15.2116C6.92434 16.676 8.38516 17.6562 10 17.6562C11.6148 17.6562 13.0757 16.676 13.7357 15.2116C13.8575 15.245 13.9797 15.2766 14.1016 15.3077V18.8281ZM15.2734 18.8281V15.6245C15.7827 15.7875 16.2465 15.996 16.6207 16.3326C17.1981 16.8519 17.52 17.6715 17.5982 18.8281H15.2734Z" fill="black" fill-opacity="0.65"/>
</g>
<defs>
<clipPath id="clip0">
<rect width="20" height="20" fill="white"/>
</clipPath>
</defs>
</svg>
