<svg width="21" height="20" viewBox="0 0 21 20" fill="none" xmlns="http://www.w3.org/2000/svg">
<g clip-path="url(#clip0)">
<path d="M19.9905 7.29797L19.0123 6.3198C18.5554 5.86285 17.8119 5.86293 17.355 6.3198L15.2946 8.38016V1.75781C15.2946 0.788555 14.5061 0 13.5368 0H2.09151C1.12225 0 0.333694 0.788555 0.333694 1.75781V18.2422C0.333694 19.2114 1.12225 20 2.09151 20H13.5368C14.5061 20 15.2946 19.2114 15.2946 18.2422V13.5925L19.9905 8.95527C20.4474 8.49836 20.4474 7.75488 19.9905 7.29797ZM12.9827 14.2286L11.2201 15.0511L12.0419 13.2903L16.4159 8.91625L17.383 9.88328L12.9827 14.2286ZM14.1228 18.2422C14.1228 18.5653 13.8599 18.8281 13.5368 18.8281H2.09151C1.76842 18.8281 1.50557 18.5653 1.50557 18.2422V1.75781C1.50557 1.43473 1.76842 1.17188 2.09151 1.17188H13.5368C13.8599 1.17188 14.1228 1.43473 14.1228 1.75781V9.55203C10.8736 12.8012 11.0858 12.5678 11.0235 12.7011L9.47675 16.0157C9.37257 16.239 9.41917 16.5036 9.59339 16.6778C9.76761 16.8521 10.0323 16.8986 10.2555 16.7945L13.5701 15.2476C13.6916 15.1909 13.7116 15.1557 14.1228 14.7496V18.2422ZM18.2168 9.05988L17.2445 8.08762L18.1837 7.14844L19.1615 8.12691L18.2168 9.05988Z" fill="black" fill-opacity="0.65"/>
<path d="M3.45862 4.96094H12.2086C12.5322 4.96094 12.7945 4.69859 12.7945 4.375C12.7945 4.05141 12.5322 3.78906 12.2086 3.78906H3.45862C3.13502 3.78906 2.87268 4.05141 2.87268 4.375C2.87268 4.69859 3.13502 4.96094 3.45862 4.96094Z" fill="black" fill-opacity="0.65"/>
<path d="M3.45862 8.08594H10.3336C10.6572 8.08594 10.9195 7.82359 10.9195 7.5C10.9195 7.17641 10.6572 6.91406 10.3336 6.91406H3.45862C3.13502 6.91406 2.87268 7.17641 2.87268 7.5C2.87268 7.82359 3.13502 8.08594 3.45862 8.08594Z" fill="black" fill-opacity="0.65"/>
<path d="M8.45862 10.0391H3.45862C3.13502 10.0391 2.87268 10.3014 2.87268 10.625C2.87268 10.9486 3.13502 11.2109 3.45862 11.2109H8.45862C8.78221 11.2109 9.04456 10.9486 9.04456 10.625C9.04456 10.3014 8.78221 10.0391 8.45862 10.0391Z" fill="black" fill-opacity="0.65"/>
</g>
<defs>
<clipPath id="clip0">
<rect width="20" height="20" fill="white" transform="translate(0.333374)"/>
</clipPath>
</defs>
</svg>
