<svg width="18" height="18" viewBox="0 0 18 18" fill="none" xmlns="http://www.w3.org/2000/svg">
<path d="M10.3645 16.5H7.63455C7.4635 16.5 7.29757 16.4416 7.1643 16.3344C7.03102 16.2271 6.9384 16.0776 6.9018 15.9105L6.59655 14.4975C6.18934 14.3191 5.80322 14.096 5.4453 13.8323L4.06755 14.271C3.90447 14.323 3.72851 14.3177 3.56889 14.2559C3.40926 14.1941 3.27559 14.0795 3.19005 13.9313L1.82205 11.568C1.73741 11.4196 1.70563 11.2469 1.73193 11.0781C1.75822 10.9093 1.84103 10.7544 1.9668 10.6388L3.03555 9.66375C2.98694 9.22208 2.98694 8.77642 3.03555 8.33475L1.9668 7.362C1.84085 7.24633 1.75793 7.09131 1.73163 6.92234C1.70533 6.75337 1.73721 6.58048 1.82205 6.432L3.18705 4.06725C3.27259 3.91899 3.40627 3.80444 3.56589 3.74264C3.72551 3.68084 3.90147 3.6755 4.06455 3.7275L5.4423 4.16625C5.6253 4.03125 5.8158 3.90525 6.0123 3.79125C6.20205 3.68475 6.39705 3.588 6.59655 3.50175L6.90255 2.09025C6.93898 1.92315 7.03142 1.77352 7.16456 1.66616C7.29769 1.55881 7.46352 1.50018 7.63455 1.5H10.3645C10.5356 1.50018 10.7014 1.55881 10.8345 1.66616C10.9677 1.77352 11.0601 1.92315 11.0965 2.09025L11.4055 3.5025C11.6155 3.5955 11.821 3.69975 12.0198 3.816C12.205 3.92325 12.3843 4.041 12.5568 4.16775L13.9353 3.729C14.0983 3.67719 14.2741 3.68263 14.4335 3.74442C14.593 3.80621 14.7265 3.92065 14.812 4.06875L16.177 6.4335C16.351 6.73875 16.291 7.125 16.0323 7.36275L14.9635 8.33775C15.0121 8.77942 15.0121 9.22508 14.9635 9.66675L16.0323 10.6418C16.291 10.8803 16.351 11.2658 16.177 11.571L14.812 13.9358C14.7265 14.084 14.5928 14.1986 14.4332 14.2604C14.2736 14.3222 14.0976 14.3275 13.9345 14.2755L12.5568 13.8368C12.1991 14.1003 11.8133 14.3231 11.4063 14.5013L11.0965 15.9105C11.06 16.0775 10.9675 16.2269 10.8343 16.3341C10.7012 16.4413 10.5355 16.4999 10.3645 16.5ZM8.99655 6C8.2009 6 7.43784 6.31607 6.87523 6.87868C6.31262 7.44129 5.99655 8.20435 5.99655 9C5.99655 9.79565 6.31262 10.5587 6.87523 11.1213C7.43784 11.6839 8.2009 12 8.99655 12C9.7922 12 10.5553 11.6839 11.1179 11.1213C11.6805 10.5587 11.9965 9.79565 11.9965 9C11.9965 8.20435 11.6805 7.44129 11.1179 6.87868C10.5553 6.31607 9.7922 6 8.99655 6Z" fill="black" fill-opacity="0.9"/>
</svg>
