<svg width="21" height="20" viewBox="0 0 21 20" fill="none" xmlns="http://www.w3.org/2000/svg">
<g clip-path="url(#clip0)">
<path d="M20.0806 6.472H18.3132V4.7046C18.3132 4.38094 18.0508 4.11853 17.7272 4.11853H15.3737C15.05 4.11853 14.7876 4.38094 14.7876 4.7046V8.23713H6.54581V4.37367C6.54581 4.05 6.28341 3.7876 5.95974 3.7876H3.60623C3.28257 3.7876 3.02016 4.05 3.02016 4.37367V6.47204H1.25277C0.929098 6.47204 0.666695 6.73444 0.666695 7.05811V12.9418C0.666695 13.2655 0.929098 13.5279 1.25277 13.5279H3.02016V15.6262C3.02016 15.9499 3.28257 16.2123 3.60623 16.2123H5.9597C6.28337 16.2123 6.54577 15.9499 6.54577 15.6262V11.7628H14.7875V15.2953C14.7875 15.619 15.0499 15.8814 15.3736 15.8814H17.7271C18.0507 15.8814 18.3131 15.619 18.3131 15.2953V13.5279H20.0805C20.4042 13.5279 20.6666 13.2655 20.6666 12.9418V7.05807C20.6667 6.7344 20.4043 6.472 20.0806 6.472ZM1.83884 12.3557V7.64414H3.02016V12.3557H1.83884V12.3557ZM5.37367 15.0401H4.1923C4.1923 14.7108 4.1923 5.42977 4.1923 4.9597H5.37363V15.0401H5.37367ZM6.54581 10.5906V9.40927H14.7876V10.5906H6.54581ZM17.141 14.7092H15.9597V5.29068H17.141V14.7092ZM19.4945 12.3557H18.3132V7.64414H19.4945V12.3557Z" fill="black" fill-opacity="0.65"/>
</g>
<defs>
<clipPath id="clip0">
<rect width="20" height="20" fill="white" transform="translate(0.666687)"/>
</clipPath>
</defs>
</svg>
