<svg width="20" height="20" viewBox="0 0 20 20" fill="none" xmlns="http://www.w3.org/2000/svg">
<g clip-path="url(#clip0)">
<path d="M2.96875 20H17.0312C17.3548 20 17.6172 19.7377 17.6172 19.4141C17.6172 15.7468 16.2443 14.8764 14.1204 14.2273C13.2168 13.9511 12.506 13.733 12.1022 12.9297H14.6875C14.9108 12.9297 15.1148 12.8027 15.2133 12.6023C15.2636 12.5 16.4453 10.0557 16.4453 6.44531V6.18488C16.4453 3.15641 13.7296 0 10 0C6.31484 0 3.55469 3.11269 3.55469 6.18488V6.44531C3.55469 10.0557 4.73641 12.5 4.78672 12.6023C4.88527 12.8027 5.08918 12.9297 5.3125 12.9293H7.89773C7.49395 13.733 6.78312 13.9511 5.87965 14.2273C3.7952 14.8644 2.38281 15.7041 2.38281 19.4141C2.38281 19.7377 2.64516 20 2.96875 20ZM3.56875 18.8281C3.60855 18.04 3.73168 17.4524 3.92035 17.0043C6.01289 17.4537 8.00648 17.6786 10 17.6786C11.9935 17.6786 13.9871 17.4537 16.0796 17.0043C16.2683 17.4524 16.3914 18.04 16.4313 18.8281H3.56875ZM7.07031 8.82812V8.21402C8.92289 8.07379 11.2814 7.50656 12.3493 5.98555C12.7003 7.00113 12.9297 7.69793 12.9297 8.68937C12.9297 10.3397 11.7017 11.7832 9.96094 11.7566C8.37832 11.7324 7.07031 10.4501 7.07031 8.82812ZM4.72656 6.44531C4.72656 3.53754 7.09223 1.17188 10 1.17188C12.9078 1.17188 15.2734 3.53754 15.2734 6.44531C15.2734 9.04144 14.6012 11.0105 14.3022 11.7578H12.8455C13.6525 10.9495 14.1016 9.82785 14.1016 8.68937C14.1016 6.98738 13.5503 6.06105 12.9045 3.93152C12.8202 3.65359 12.545 3.47934 12.2578 3.52195C11.9705 3.56457 11.7578 3.81113 11.7578 4.10156C11.7578 6.99359 6.53281 7.06988 6.48047 7.07031C6.1584 7.07246 5.89844 7.33414 5.89844 7.65625V8.82812C5.89844 9.93824 6.34398 10.9876 7.13172 11.7578H5.69789C5.39855 11.0098 4.72656 9.04105 4.72656 6.44531ZM6.22219 15.3479C7.3143 15.0141 8.64684 14.6065 9.18543 12.8457C9.4543 12.9001 9.72926 12.9286 10.0069 12.9286C10.2742 12.9286 10.5439 12.9029 10.8124 12.8508C10.8136 12.8505 10.8147 12.8502 10.8159 12.85C11.3554 14.6071 12.6866 15.0144 13.7778 15.3479C14.3342 15.518 14.8469 15.6749 15.271 15.9737C11.6631 16.6814 8.33703 16.6814 4.72902 15.9737C5.15316 15.6749 5.66578 15.518 6.22219 15.3479Z" fill="black" fill-opacity="0.65"/>
</g>
<defs>
<clipPath id="clip0">
<rect width="20" height="20" fill="white"/>
</clipPath>
</defs>
</svg>
