<svg width="21" height="20" viewBox="0 0 21 20" fill="none" xmlns="http://www.w3.org/2000/svg">
<g clip-path="url(#clip0)">
<path d="M13.4011 5.97656C13.4011 6.3002 13.1388 6.5625 12.8151 6.5625C12.4915 6.5625 12.2292 6.3002 12.2292 5.97656C12.2292 5.65292 12.4915 5.39062 12.8151 5.39062C13.1388 5.39062 13.4011 5.65292 13.4011 5.97656Z" fill="black" fill-opacity="0.65"/>
<path d="M9.10419 5.97656C9.10419 6.3002 8.84189 6.5625 8.51825 6.5625C8.19461 6.5625 7.93231 6.3002 7.93231 5.97656C7.93231 5.65292 8.19461 5.39062 8.51825 5.39062C8.84189 5.39062 9.10419 5.65292 9.10419 5.97656Z" fill="black" fill-opacity="0.65"/>
<path d="M17.9323 8.67188H15.4456C15.8847 7.88483 16.1354 6.97906 16.1354 6.01562C16.1354 5.55557 16.0785 5.10178 15.9661 4.66095C16.6678 4.19739 17.112 3.40027 17.112 2.53906C17.112 1.13907 15.9729 0 14.5729 0C13.8094 0 13.1026 0.338135 12.6262 0.908508C12.0031 0.668335 11.3462 0.546875 10.6667 0.546875C9.98721 0.546875 9.33032 0.668335 8.70715 0.908508C8.23077 0.338135 7.52399 0 6.76044 0C5.36044 0 4.22137 1.13907 4.22137 2.53906C4.22137 3.40027 4.66556 4.19739 5.36731 4.66095C5.25485 5.10178 5.19794 5.55557 5.19794 6.01562C5.19794 6.97906 5.44864 7.88483 5.88779 8.67188H3.40106C2.00107 8.67188 0.862 9.81094 0.862 11.2109C0.862 12.6109 2.00107 13.75 3.40106 13.75H4.612V15.0813C4.12753 15.6041 3.83075 16.3031 3.83075 17.0703C3.83075 18.6858 5.14499 20 6.76044 20H14.5729C16.1884 20 17.5026 18.6858 17.5026 17.0703C17.5026 16.3031 17.2058 15.6041 16.7214 15.0813V13.75H17.9323C19.3323 13.75 20.4714 12.6109 20.4714 11.2109C20.4714 9.81094 19.3323 8.67188 17.9323 8.67188ZM5.39325 2.53906C5.39325 1.78513 6.0065 1.17188 6.76044 1.17188C7.27298 1.17188 7.73837 1.45523 7.97488 1.91132C8.12198 2.19513 8.46973 2.3085 8.75598 2.16614C9.35275 1.86935 9.99561 1.71875 10.6667 1.71875C11.3378 1.71875 11.9806 1.86935 12.5774 2.16614C12.8636 2.30865 13.2114 2.19513 13.3585 1.91132C13.595 1.45523 14.0604 1.17188 14.5729 1.17188C15.3269 1.17188 15.9401 1.78513 15.9401 2.53906C15.9401 3.1041 15.5849 3.61816 15.0562 3.81805C14.7573 3.93127 14.6041 4.26315 14.7121 4.56406C14.879 5.02899 14.9636 5.51743 14.9636 6.01562C14.9636 8.18619 13.3457 9.98566 11.2526 10.2724V8.95584L11.7099 8.72726C11.9994 8.58246 12.1167 8.23059 11.9719 7.94113C11.8273 7.65167 11.4754 7.53433 11.1859 7.67914L10.6667 7.93869L10.1474 7.67899C9.85812 7.53433 9.5061 7.65167 9.36145 7.94098C9.21664 8.23044 9.33398 8.58246 9.62344 8.72711L10.0807 8.95584V10.2724C7.9877 9.98566 6.36981 8.18619 6.36981 6.01562C6.36981 5.51743 6.45435 5.02899 6.62128 4.56406C6.72931 4.26315 6.57611 3.93127 6.27704 3.81805C5.74847 3.61816 5.39325 3.1041 5.39325 2.53906ZM5.00262 17.0703C5.00262 16.1011 5.7912 15.3125 6.76044 15.3125C7.72968 15.3125 8.51825 16.1011 8.51825 17.0703C8.51825 18.0396 7.72968 18.8281 6.76044 18.8281C5.7912 18.8281 5.00262 18.0396 5.00262 17.0703ZM14.5729 18.8281C13.6037 18.8281 12.8151 18.0396 12.8151 17.0703C12.8151 16.1011 13.6037 15.3125 14.5729 15.3125C15.5422 15.3125 16.3307 16.1011 16.3307 17.0703C16.3307 18.0396 15.5422 18.8281 14.5729 18.8281ZM17.9323 12.5781H16.1354C15.8118 12.5781 15.5495 12.8404 15.5495 13.1641V14.3086C15.2439 14.2001 14.9153 14.1406 14.5729 14.1406C12.9575 14.1406 11.6432 15.4549 11.6432 17.0703C11.6432 17.7293 11.8621 18.3382 12.2307 18.8281H9.10266C9.47131 18.3382 9.69012 17.7293 9.69012 17.0703C9.69012 15.4549 8.37589 14.1406 6.76044 14.1406C6.41803 14.1406 6.08951 14.2001 5.78387 14.3086V13.1641C5.78387 12.8404 5.52158 12.5781 5.19794 12.5781H3.40106C2.64713 12.5781 2.03387 11.9649 2.03387 11.2109C2.03387 10.457 2.64713 9.84375 3.40106 9.84375H6.76532C7.75836 10.8556 9.14035 11.4844 10.6667 11.4844C12.193 11.4844 13.575 10.8556 14.5681 9.84375H17.9323C18.6862 9.84375 19.2995 10.457 19.2995 11.2109C19.2995 11.9649 18.6862 12.5781 17.9323 12.5781Z" fill="black" fill-opacity="0.65"/>
</g>
<defs>
<clipPath id="clip0">
<rect width="20" height="20" fill="white" transform="translate(0.666687)"/>
</clipPath>
</defs>
</svg>
