<svg width="24" height="25" viewBox="0 0 24 25" fill="none" xmlns="http://www.w3.org/2000/svg">
<path d="M12 2.75C6.579 2.75 2 7.329 2 12.75C2 18.171 6.579 22.75 12 22.75C17.421 22.75 22 18.171 22 12.75C22 7.329 17.421 2.75 12 2.75ZM12 7.75C13.727 7.75 15 9.022 15 10.75C15 12.478 13.727 13.75 12 13.75C10.274 13.75 9 12.478 9 10.75C9 9.022 10.274 7.75 12 7.75ZM6.894 17.522C7.791 16.202 9.287 15.322 11 15.322H13C14.714 15.322 16.209 16.202 17.106 17.522C15.828 18.89 14.015 19.75 12 19.75C9.985 19.75 8.172 18.89 6.894 17.522Z" fill="black" fill-opacity="0.65"/>
</svg>
